<?xml version="1.0" encoding="utf-8"?>
<!-- Generator: Adobe Illustrator 26.3.1, SVG Export Plug-In . SVG Version: 6.00 Build 0)  -->
<svg version="1.1" id="Layer_1" xmlns="http://www.w3.org/2000/svg" xmlns:xlink="http://www.w3.org/1999/xlink" x="0px" y="0px"
	 viewBox="0 0 200 144" style="enable-background:new 0 0 200 144;" xml:space="preserve">
<style type="text/css">
	.st0{fill:#F8FAFD;}
	.st1{fill:none;stroke:#71869D;stroke-width:0.5416;stroke-linecap:round;}
	.st2{fill:#71869D;}
	.st3{fill:none;stroke:#71869D;stroke-width:1.6247;stroke-linecap:round;}
	.st4{fill:none;stroke:#71869D;stroke-width:1.6247;stroke-linecap:round;stroke-opacity:0.3;}
	.st5{fill:none;stroke:#71869D;stroke-width:0.5416;}
	.st6{fillRule:evenodd;clipRule:evenodd;fill:#71869D;}
</style>
<path class="st0" d="M196,0H4C1.8,0,0,1.8,0,4v136c0,2.2,1.8,4,4,4h192c2.2,0,4-1.8,4-4V4C200,1.8,198.2,0,196,0z"/>
<path class="st1" d="M111.5,38.7c0.7,0.9,1.8,3.1,0.9,4.9 M115.4,46c0.2-0.5,0.7-1.5,0.7-1.9c0-0.5,5.2-0.2,6-5.8
	c1.5,0,2.2-1.2,1.1-1.7c-1.2-0.6-1.3-1.7-1.1-2.4c0.3-0.9,0.2-2,0.1-2"/>
<ellipse class="st2" cx="121.1" cy="35.3" rx="0.2" ry="0.4"/>
<path class="st1" d="M119.9,34.5c0.2-0.2,0.8-0.6,1.4-0.1"/>
<ellipse class="st2" cx="118.3" cy="35.9" rx="0.3" ry="0.3"/>
<ellipse class="st2" cx="117.2" cy="37.8" rx="0.3" ry="0.3"/>
<ellipse class="st2" cx="118.7" cy="37.2" rx="0.3" ry="0.3"/>
<path class="st1" d="M119.3,38.6c0.1,0.5,0.5,1.4,1.3,1.4"/>
<path class="st1" d="M119.3,38.6c-0.3,0.9-0.5,2.4,1.3,1.4"/>
<path class="st1" d="M115,37c-0.8,0.4-1.2-0.5-1.3-1c-0.3-0.9-0.4-2.8,1-2.8c0.3,0,0.9,0.4,0.9,1.8"/>
<path class="st1" d="M114.6,34.8c-0.1,0.2-0.2,0.7,0.3,1"/>
<path class="st2" d="M113.7,36.1c-0.2,1.8-1.7,2.6-2.4,2.8c-0.7-0.9-2-3.5-1.3-7.2c0.8-4.7,3.7-6.2,9.2-5.7c4.4,0.4,6.8-1.1,7.4-1.9
	c0.1,4.5-2.7,7.4-4.1,8.2c-1.2,0.6-2.9-0.8-3.6-1.6c-0.2,0.7-0.9,2.2-1.5,2.3c-0.6,0.1-0.9,1.4-0.9,2c-0.4,0.9-0.7,0.6-0.8,0.4
	c-0.3-1.8-1-2-1.3-1.9C113.1,33.5,113.4,35.2,113.7,36.1z"/>
<path class="st2" d="M92.6,98.4c-1.2-6.2,3.3-20.4,5.6-26.7c0.8,0.4,7.4-0.9,9.6-4c1.7-2.5,4.6-3.4,6-3.9c1.9-0.6,5-0.5,5.6,0.9
	l0.6,1.5c2,5.9,0.3,14.8-1,18.8l-4.7,0.8c-3.5-5.7-1.7-12.8-0.4-15.5c-1.4,1.9-5.5,4-7.3,4.8c-0.1,5.1-7.9,22.8-9.7,24
	C95.7,99.9,93.5,99,92.6,98.4z"/>
<path class="st1" d="M93.2,98.7l-1.1,2.9l-0.1,0.3c-0.1,0.3-0.2,0.7,0,1c0.1,0.3,0.4,0.5,0.8,0.6c1.1,0.3,5.3,0.6,7.2,0.7
	c0.3,0,1-0.1,0.8-1.1c-0.1-1-0.8-1.9-1.6-2.2c-0.6-0.3-2.3-0.7-4.2-0.5 M94.5,100.6c0.2,0,0.4-0.1,0.6-0.1 M95.6,99.4l-0.6,1.1"/>
<path class="st1" d="M115.1,85.6c0,1.2,0.1,3.7,0.4,4.1c0.4,0.5,0.8,0.5,3.6-0.4c2.2-0.7,3.1-0.7,3.7-0.8c0.4-0.1,0.8-0.1,0.8-1
	c0-1.2-0.5-2-1.9-2.1c-1.1-0.1-2.8,0.6-3.4,0.9v-1.1"/>
<path class="st1" d="M119.6,51.9c0-2-1.9-5.7-4.2-5.7c-2.3,0-3.2-1.6-3.4-2.4c-0.2-0.2-0.8-0.4-1.8,0.6 M111.3,43.5
	c-0.4-0.1-0.7-0.3-1.6,0 M108.1,44.6c0.4-0.6,1.1-1,1.6-1.1 M109.7,43.6c-4.3,0.4-12.8,2.3-12.2,6.1c0.1,0.3,0.4,0.8,0.9,1.3
	 M100.5,52.1c-1-0.2-1.6-0.7-2.1-1.1 M98.4,51c1.3,2.1,5.3,6.6,10.3,8.1"/>
<path class="st1" d="M108.7,59.1c0.3-0.4,1.1-1.2,2.1-1.2"/>
<path class="st1" d="M110.7,57.9c0-1.2-1-4.2-4.8-6.9"/>
<path class="st1" d="M104.9,51.9c0.4-0.6,1.6-2,3.2-2.3"/>
<path class="st1" d="M114.2,50.8c0.2,0.2,0.5,0.8,0.5,1.4"/>
<path class="st1" d="M108.8,59.1c0.4,1.1,1.7,3.1,4.2,2.2c2.4-0.9,2.5-1.4,2.3-1.5 M114.2,59.7c0.9,0,2.6-0.2,2.9-0.3
	c0.4-0.2,0.5-0.2,0.5-0.6c0-0.4-3.4,0.3-3.4-1c0.3-0.3,0.8-1,0.3-1.3c-0.5-0.3-1.5,0.6-1.9,1c-0.4,0.5-1.5,1.2-1.9,0.4"/>
<path class="st1" d="M115.7,59.7c1.8,1.7,6.3,4.2,9.5,0.8 M125.2,60.5c0.1-0.6,0.4-1.9,1.3-2.1c0.1-0.8,0.6-2.3,1.4-1.6 M125.2,60.5
	c2,0.2,3.5-0.3,4.4-1 M127.4,58.3c0.2-0.9,0.8-2.8,1.9-2.5 M128.8,58.3c0.3-0.5,0.9-1.7,0.8-2.9c0-0.5,0.3-1.4,1.2-1
	c0.9,0.4,0.3,2.8-0.1,4c-0.2,0.3-0.5,0.8-1.1,1.1 M129.6,59.5c0.6-0.2,1.9-0.9,2.3-2.6c0.4-1.7-0.2-1.7-0.5-1.5"/>
<path class="st1" d="M115.4,60c0,0.8-0.2,2.6-1,3.5"/>
<path class="st1" d="M98.4,61.8c-1.7,2.3-4.1,7.6,0,10"/>
<path class="st1" d="M151.7,52.5l1.6,1"/>
<path class="st1" d="M150.8,53l0.1,1.8"/>
<path class="st1" d="M149.8,52.6l-1.4,1.1"/>
<path class="st3" d="M147.2,55.3v18.5 M150.6,70.5h-19.4v23.3 M134.8,90.4h-23.9v17.4 M114.4,104.7H85.2V119"/>
<path class="st4" d="M64.6,109.5l16.5-14.1"/>
<path class="st4" d="M48.9,109.9l9.2-8"/>
<path class="st4" d="M65.9,89.9l19-14.7"/>
<path class="st1" d="M109.2,60.1l-24,2.8c-2.8-2.2-2.1-5.5-1.4-6.9l16.7-2 M117.4,59.5l8.2-0.8 M131.7,57.8l5.4-0.4l7.2-3.3
	c-0.9-0.9-0.4-1.7,0-2l-7.2-1.7l-28.5,2.4"/>
<path class="st2" d="M81.2,56l2.4-0.3c-1.7,3.8,0.2,6.4,1.5,7.4l-2.9,0.4C79.9,60.6,80.6,57.4,81.2,56z"/>
<path class="st2" d="M144.6,54.3c-0.9-0.9-0.4-2.1,0-2.4l3.4,0.8L144.6,54.3z"/>
<path class="st5" d="M137.2,50.4c-0.9,1.1-2.2,4.1,0,6.9"/>
<path class="st6" d="M150.2,51.8c-1.6-1.4-6.9-6.2-6.9-10c0-4.5,3-7.4,7.4-7.4c4.5,0,7.4,3.7,7.4,7.4c0,3.1-5.3,8.4-7,10
	C150.9,52.1,150.5,52.1,150.2,51.8z M153.2,40.9c0,1.4-1.1,2.5-2.5,2.5c-1.4,0-2.5-1.1-2.5-2.5s1.1-2.5,2.5-2.5
	C152.1,38.4,153.2,39.5,153.2,40.9z"/>
</svg>
