<?xml version="1.0" encoding="utf-8"?>
<!-- Generator: Adobe Illustrator 26.0.3, SVG Export Plug-In . SVG Version: 6.00 Build 0)  -->
<svg version="1.1" id="Layer_1" xmlns="http://www.w3.org/2000/svg" xmlns:xlink="http://www.w3.org/1999/xlink" x="0px" y="0px"
	 viewBox="0 0 140 47" style="enable-background:new 0 0 140 47;" xml:space="preserve">
<style type="text/css">
	.st0{fill:#7B878D;}
</style>
<path class="st0" d="M73.5,47c-4.2,0-7.8-1.5-10.8-4.5s-4.5-6.6-4.5-10.8v-1.4c-3.4-0.5-6.2-2.1-8.4-4.7c-2.2-2.6-3.3-5.7-3.3-9.2
	V2.3h7V0h4.7v9.4h-4.7V7.1h-2.3v9.4c0,2.6,0.9,4.8,2.8,6.6s4.1,2.8,6.6,2.8c2.6,0,4.8-0.9,6.6-2.8c1.8-1.8,2.8-4.1,2.8-6.6V7.1h-2.3
	v2.3H63V0h4.7v2.3h7v14.1c0,3.5-1.1,6.6-3.3,9.2s-5,4.2-8.4,4.7v1.4c0,2.9,1,5.4,3.1,7.5c2.1,2.1,4.6,3.1,7.5,3.1s5.4-1,7.5-3.1
	c2.1-2.1,3.1-4.6,3.1-7.5v-3.9c-1.4-0.5-2.5-1.3-3.4-2.5c-0.9-1.2-1.3-2.6-1.3-4.1c0-2,0.7-3.6,2.1-5c1.4-1.4,3-2.1,5-2.1
	c2,0,3.6,0.7,5,2.1s2.1,3,2.1,5c0,1.5-0.4,2.9-1.3,4.1c-0.9,1.2-2,2.1-3.4,2.5v3.9c0,4.2-1.5,7.8-4.5,10.8S77.8,47,73.5,47z"/>
</svg>
