<?xml version="1.0" encoding="utf-8"?>
<!-- Generator: Adobe Illustrator 26.0.3, SVG Export Plug-In . SVG Version: 6.00 Build 0)  -->
<svg version="1.1" id="Layer_1" xmlns="http://www.w3.org/2000/svg" xmlns:xlink="http://www.w3.org/1999/xlink" x="0px" y="0px"
	 viewBox="0 0 201 67" style="enable-background:new 0 0 201 67;" xml:space="preserve">
<style type="text/css">
	.st0{fill:#7B878D;}
</style>
<path class="st0" d="M95.8,35.5l-3.1-4.6c-0.3-0.5-0.7-0.9-1.3-1.2c-0.5-0.3-1.1-0.5-1.7-0.5H65.9c-0.7-1.6-1.1-3.1-1.4-4.5
	c-0.2-1.5-0.4-3-0.4-4.5c0-5.7,1.9-10.4,5.7-14.2c3.8-3.8,8.6-5.7,14.2-5.7c3.1,0,6.1,0.7,9,2s5.3,3.2,7.3,5.6
	c2.1-2.4,4.5-4.3,7.3-5.6c2.8-1.3,5.8-2,9-2c5.7,0,10.4,1.9,14.2,5.7s5.7,8.6,5.7,14.2c0,1.6-0.1,3.1-0.4,4.5
	c-0.2,1.5-0.7,3-1.4,4.5h-21.6l-6.3-9.3c-0.4-0.5-0.8-1-1.4-1.2c-0.6-0.3-1.2-0.4-1.9-0.4c-0.8,0-1.5,0.2-2,0.7
	c-0.6,0.5-1,1-1.2,1.8L95.8,35.5z M100.5,66.8l-5.3-4.7c-6.3-5.7-11.5-10.6-15.6-14.6c-4.1-4.1-7.2-7.7-9.5-11h17.4l6.3,9.3
	c0.4,0.5,0.8,1,1.4,1.2c0.6,0.3,1.2,0.4,1.9,0.4c0.8,0,1.5-0.2,2-0.7c0.6-0.5,1-1,1.2-1.8l4.9-14.8l3.2,4.7c0.3,0.5,0.7,0.9,1.3,1.2
	c0.5,0.3,1.1,0.5,1.7,0.5h19.5c-2.3,3.3-5.5,6.9-9.5,11s-9.3,8.9-15.6,14.6L100.5,66.8z"/>
</svg>
