<?xml version="1.0" encoding="utf-8"?>
<!-- Generator: Adobe Illustrator 26.0.3, SVG Export Plug-In . SVG Version: 6.00 Build 0)  -->
<svg version="1.1" id="Layer_1" xmlns="http://www.w3.org/2000/svg" xmlns:xlink="http://www.w3.org/1999/xlink" x="0px" y="0px"
	 viewBox="0 0 24 24" style="enable-background:new 0 0 24 24;" xml:space="preserve">
<style type="text/css">
	.st0{opacity:0.3;fill:#377DFF;}
	.st1{fill:#377DFF;}
</style>
<path class="st0" d="M2.1,10C3,5.6,6.7,2.3,11.2,2L8.8,4.4L11.1,7C9.6,7.3,8.3,8.2,7.6,9.6l-3.1,2.8L2.1,10z M19.3,11.5L16.4,14
	c-0.7,1.5-2,2.6-3.7,2.9l2.3,2.6l-2.4,2.4c4.5-0.3,8.2-3.7,9.1-8L19.3,11.5z"/>
<path class="st1" d="M13.8,2.1c4.4,0.9,7.7,4.6,8,9.1l-2.4-2.4L16.8,11c-0.3-1.6-1.3-2.9-2.8-3.6l-2.6-3L13.8,2.1z M12.3,19.4
	l-2.6-3c-1.4-0.7-2.4-2-2.7-3.6l-2.6,2.3L2,12.7c0.3,4.5,3.7,8.2,8,9.1L12.3,19.4z"/>
</svg>
