<?xml version="1.0" encoding="utf-8"?>
<!-- Generator: Adobe Illustrator 26.0.3, SVG Export Plug-In . SVG Version: 6.00 Build 0)  -->
<svg version="1.1" id="Layer_1" xmlns="http://www.w3.org/2000/svg" xmlns:xlink="http://www.w3.org/1999/xlink" x="0px" y="0px"
	 viewBox="0 0 24 24" style="enable-background:new 0 0 24 24;" xml:space="preserve">
<style type="text/css">
	.st0{opacity:0.3;fill:#377DFF;enable-background:new    ;}
	.st1{fill:#377DFF;}
</style>
<path class="st0" d="M22.1,11.5v1.1c0,0.6-0.4,1-0.9,1.1l-1.3,0.2c-0.2,0.8-0.5,1.6-1,2.3l0.8,1.1c0.3,0.4,0.3,1.1-0.1,1.5l-0.8,0.8
	c-0.4,0.4-1,0.4-1.5,0.1l-1.1-0.8c-0.7,0.4-1.5,0.8-2.3,1l-0.2,1.3c-0.1,0.5-0.6,0.9-1.1,0.9h-1.1c-0.6,0-1-0.4-1.1-0.9l-0.2-1.3
	c-0.8-0.2-1.6-0.5-2.3-1l-1.1,0.8C6.4,20,5.7,20,5.3,19.6l-0.8-0.8c-0.4-0.4-0.4-1-0.1-1.5l0.8-1.1c-0.4-0.7-0.8-1.5-1-2.3l-1.3-0.2
	C2.4,13.6,2,13.1,2,12.6v-1.1c0-0.6,0.4-1,0.9-1.1l1.3-0.2c0.2-0.8,0.5-1.6,1-2.3L4.4,6.8C4.1,6.4,4.1,5.7,4.5,5.3l0.8-0.8
	c0.4-0.4,1-0.4,1.5-0.1l1.1,0.8c0.7-0.4,1.5-0.8,2.3-1l0.2-1.3C10.5,2.4,11,2,11.5,2h1.1c0.6,0,1,0.4,1.1,0.9l0.2,1.3
	c0.8,0.2,1.6,0.5,2.3,1l1.1-0.8c0.4-0.3,1.1-0.3,1.5,0.1l0.8,0.8c0.4,0.4,0.4,1,0.1,1.5l-0.8,1.1c0.4,0.7,0.8,1.5,1,2.3l1.3,0.2
	C21.7,10.5,22.1,11,22.1,11.5z M12.1,8.6c-1.9,0-3.5,1.6-3.5,3.5s1.6,3.5,3.5,3.5s3.5-1.6,3.5-3.5S14,8.6,12.1,8.6z"/>
<path class="st1" d="M17.1,12.1c0,2.8-2.2,5-5,5c-2.8,0-5-2.2-5-5c0-2.8,2.2-5,5-5C14.9,7.1,17.1,9.3,17.1,12.1z M12.1,10.1
	c-1.1,0-2,0.9-2,2s0.9,2,2,2s2-0.9,2-2S13.2,10.1,12.1,10.1z"/>
</svg>
