<?xml version="1.0" encoding="utf-8"?>
<!-- Generator: Adobe Illustrator 26.0.3, SVG Export Plug-In . SVG Version: 6.00 Build 0)  -->
<svg version="1.1" id="Layer_1" xmlns="http://www.w3.org/2000/svg" xmlns:xlink="http://www.w3.org/1999/xlink" x="0px" y="0px"
	 viewBox="0 0 24 24" style="enable-background:new 0 0 24 24;" xml:space="preserve">
<style type="text/css">
	.st0{opacity:0.3;fill:#377DFF;}
	.st1{fill:#377DFF;}
</style>
<path class="st0" d="M22,12c0,5.5-4.5,10-10,10S2,17.5,2,12S6.5,2,12,2S22,6.5,22,12z M12,7c-1.7,0-3,1.3-3,3s1.3,3,3,3s3-1.3,3-3
	S13.7,7,12,7z"/>
<path class="st1" d="M12,22c2.6,0,5-1,6.7-2.6C17.9,16.9,15.2,15,12,15s-5.9,1.9-6.7,4.4C7,21,9.4,22,12,22z"/>
</svg>
