<?xml version="1.0" encoding="utf-8"?>
<!-- Generator: Adobe Illustrator 26.0.3, SVG Export Plug-In . SVG Version: 6.00 Build 0)  -->
<svg version="1.1" id="Layer_1" xmlns="http://www.w3.org/2000/svg" xmlns:xlink="http://www.w3.org/1999/xlink" x="0px" y="0px"
	 viewBox="0 0 24 24" style="enable-background:new 0 0 24 24;" xml:space="preserve">
<style type="text/css">
	.st0{fill:#377DFF;}
	.st1{opacity:0.3;fill:#377DFF;enable-background:new    ;}
</style>
<path class="st0" d="M20,14h-2v-4h2c0.6,0,1,0.4,1,1v2C21,13.6,20.6,14,20,14z M21,19v-2c0-0.6-0.4-1-1-1h-2v4h2
	C20.6,20,21,19.6,21,19z M21,7V5c0-0.6-0.4-1-1-1h-2v4h2C20.6,8,21,7.6,21,7z"/>
<path class="st1" d="M17,22H3c-0.6,0-1-0.4-1-1V3c0-0.6,0.4-1,1-1h14c0.6,0,1,0.4,1,1v18C18,21.6,17.6,22,17,22z M10,7
	C8.9,7,8,7.9,8,9s0.9,2,2,2s2-0.9,2-2S11.1,7,10,7z M13.3,16c0.7,0,1.2-0.7,1-1.3C13.7,13.2,12,12,10.1,12c-2,0-3.6,1.1-4.2,2.7
	C5.6,15.3,6.2,16,7.4,16H13.3z"/>
</svg>
