<?xml version="1.0" encoding="utf-8"?>
<!-- Generator: Adobe Illustrator 26.0.3, SVG Export Plug-In . SVG Version: 6.00 Build 0)  -->
<svg version="1.1" id="Layer_1" xmlns="http://www.w3.org/2000/svg" xmlns:xlink="http://www.w3.org/1999/xlink" x="0px" y="0px"
	 viewBox="0 0 24 24" style="enable-background:new 0 0 24 24;" xml:space="preserve">
<style type="text/css">
	.st0{opacity:0.3;fill:#377DFF;enable-background:new    ;}
	.st1{fill:#377DFF;}
</style>
<path class="st0" d="M10,4h11c0.6,0,1,0.4,1,1v2H10V4z"/>
<path class="st0" d="M10.3,15.3l0.7-0.7l-2.3-2.3c-0.4-0.4-1-0.4-1.4,0c-0.4,0.4-0.4,1,0,1.4l3,3C9.9,16.3,9.9,15.7,10.3,15.3z"/>
<path class="st1" d="M10.4,3.6L12,6h9c0.6,0,1,0.4,1,1v12c0,0.6-0.4,1-1,1H3c-0.6,0-1-0.4-1-1V4c0-0.6,0.4-1,1-1h6.2
	C9.7,3,10.2,3.2,10.4,3.6z M11.7,16.7l5-5c0.4-0.4,0.4-1,0-1.4c-0.4-0.4-1-0.4-1.4,0L11,14.6l-2.3-2.3c-0.4-0.4-1-0.4-1.4,0
	c-0.4,0.4-0.4,1,0,1.4l3,3c0.2,0.2,0.5,0.3,0.7,0.3S11.5,16.9,11.7,16.7z"/>
</svg>
