<?xml version="1.0" encoding="utf-8"?>
<!-- Generator: Adobe Illustrator 26.0.3, SVG Export Plug-In . SVG Version: 6.00 Build 0)  -->
<svg version="1.1" id="Layer_1" xmlns="http://www.w3.org/2000/svg" xmlns:xlink="http://www.w3.org/1999/xlink" x="0px" y="0px"
	 viewBox="0 0 24 24" style="enable-background:new 0 0 24 24;" xml:space="preserve">
<style type="text/css">
	.st0{opacity:0.3;fill:#377DFF;enable-background:new    ;}
	.st1{fill:#377DFF;}
</style>
<path class="st0" d="M20.9,12.9c-0.6,0-1-0.4-1-1c0-0.6,0.4-1,1-1h0.9c-0.5-4.7-4.2-8.5-8.9-8.9v0.9c0,0.6-0.4,1-1,1
	c-0.6,0-1-0.4-1-1V2C6.2,2.5,2.4,6.2,2,10.9h0.9c0.6,0,1,0.4,1,1c0,0.6-0.4,1-1,1H2c0.5,4.7,4.2,8.5,8.9,8.9v-0.9c0-0.6,0.4-1,1-1
	c0.6,0,1,0.4,1,1v0.9c4.7-0.5,8.5-4.2,8.9-8.9H20.9z"/>
<path class="st1" d="M16.9,10.9h-3.3c-0.2-0.3-0.4-0.5-0.7-0.7V5.9c0-0.6-0.4-1-1-1c-0.6,0-1,0.4-1,1v4.3c-0.3,0.2-0.5,0.4-0.7,0.7
	H9.9c-0.6,0-1,0.4-1,1c0,0.6,0.4,1,1,1h0.3c0.2,0.3,0.4,0.5,0.7,0.7v0.3c0,0.6,0.4,1,1,1c0.6,0,1-0.4,1-1v-0.3
	c0.3-0.2,0.5-0.4,0.7-0.7h3.3c0.6,0,1-0.4,1-1C17.9,11.3,17.5,10.9,16.9,10.9z"/>
</svg>
