<?xml version="1.0" encoding="utf-8"?>
<!-- Generator: Adobe Illustrator 26.0.3, SVG Export Plug-In . SVG Version: 6.00 Build 0)  -->
<svg version="1.1" id="Layer_1" xmlns="http://www.w3.org/2000/svg" xmlns:xlink="http://www.w3.org/1999/xlink" x="0px" y="0px"
	 viewBox="0 0 24 24" style="enable-background:new 0 0 24 24;" xml:space="preserve">
<style type="text/css">
	.st0{opacity:0.3;fill:#377DFF;enable-background:new    ;}
	.st1{fill:#377DFF;}
</style>
<path class="st0" d="M21,22H3c-0.6,0-1-0.4-1-1V5c0-0.6,0.4-1,1-1h18c0.6,0,1,0.4,1,1v16C22,21.6,21.6,22,21,22z"/>
<path class="st1" d="M6,6C5.4,6,5,5.6,5,5V3c0-0.6,0.4-1,1-1s1,0.4,1,1v2C7,5.6,6.6,6,6,6z M11,5V3c0-0.6-0.4-1-1-1S9,2.4,9,3v2
	c0,0.6,0.4,1,1,1S11,5.6,11,5z M15,5V3c0-0.6-0.4-1-1-1s-1,0.4-1,1v2c0,0.6,0.4,1,1,1S15,5.6,15,5z M19,5V3c0-0.6-0.4-1-1-1
	s-1,0.4-1,1v2c0,0.6,0.4,1,1,1S19,5.6,19,5z"/>
<path class="st1" d="M8.8,13.1c0.4,0,0.7-0.1,0.9-0.3s0.4-0.5,0.4-0.9c0-0.3-0.1-0.6-0.3-0.8c-0.2-0.2-0.5-0.3-0.8-0.3
	c-0.2,0-0.4,0-0.6,0.1C8.2,11,8.1,11.1,8,11.2c-0.1,0.1-0.2,0.2-0.3,0.4c-0.1,0.2-0.2,0.3-0.2,0.5c0,0.1-0.1,0.1-0.2,0.2
	c-0.1,0.1-0.2,0.1-0.4,0.1c-0.2,0-0.3-0.1-0.4-0.2c-0.1-0.1-0.2-0.3-0.2-0.5s0.1-0.4,0.2-0.6c0.1-0.2,0.3-0.4,0.5-0.6
	s0.5-0.4,0.9-0.5c0.4-0.1,0.7-0.2,1.2-0.2c0.4,0,0.7,0.1,1,0.2c0.3,0.1,0.6,0.3,0.8,0.4c0.2,0.1,0.4,0.4,0.5,0.7
	c0.1,0.3,0.2,0.5,0.2,0.8c0,0.4-0.1,0.7-0.3,1c-0.2,0.3-0.4,0.6-0.7,0.8c0.3,0.2,0.6,0.4,0.8,0.6c0.2,0.2,0.4,0.4,0.5,0.7
	c0.1,0.3,0.2,0.5,0.2,0.8c0,0.4-0.1,0.7-0.2,1c-0.1,0.3-0.4,0.6-0.6,0.9c-0.2,0.3-0.6,0.5-1,0.6c-0.4,0.1-0.8,0.2-1.3,0.2
	s-0.9-0.1-1.3-0.3C7.3,18,7,17.8,6.8,17.6c-0.2-0.2-0.4-0.5-0.5-0.8c-0.1-0.3-0.2-0.5-0.2-0.7c0-0.2,0.1-0.4,0.2-0.5
	c0.1-0.1,0.3-0.2,0.5-0.2c0.1,0,0.2,0,0.3,0.1s0.2,0.1,0.2,0.2c0.2,0.5,0.4,0.9,0.7,1.2c0.3,0.3,0.6,0.4,1,0.4
	c0.2,0,0.5-0.1,0.7-0.2s0.4-0.3,0.6-0.5c0.2-0.2,0.2-0.5,0.2-0.8c0-0.5-0.1-0.8-0.4-1.1c-0.3-0.3-0.6-0.4-1-0.4c-0.1,0-0.2,0-0.4,0
	s-0.3,0-0.3,0c-0.2,0-0.4-0.1-0.5-0.2c-0.1-0.1-0.2-0.3-0.2-0.4c0-0.2,0.1-0.3,0.2-0.5S8.2,13,8.5,13h0.3V13.1z M15.3,17.5v-5.3
	c-1,0.8-1.7,1.1-2,1.1c-0.2,0-0.3-0.1-0.4-0.2c-0.1-0.1-0.2-0.3-0.2-0.5c0-0.2,0.1-0.3,0.2-0.4c0.1-0.1,0.3-0.2,0.7-0.4
	c0.5-0.2,0.9-0.5,1.1-0.7c0.2-0.2,0.5-0.5,0.8-0.8s0.4-0.5,0.4-0.6c0-0.1,0.2-0.1,0.4-0.1c0.2,0,0.4,0.1,0.5,0.2
	c0.1,0.1,0.2,0.4,0.2,0.7v6.7c0,0.8-0.3,1.2-0.8,1.2c-0.2,0-0.4-0.1-0.6-0.2C15.4,18.1,15.3,17.8,15.3,17.5z"/>
</svg>
