<?xml version="1.0" encoding="utf-8"?>
<!-- Generator: Adobe Illustrator 26.0.3, SVG Export Plug-In . SVG Version: 6.00 Build 0)  -->
<svg version="1.1" id="Layer_1" xmlns="http://www.w3.org/2000/svg" xmlns:xlink="http://www.w3.org/1999/xlink" x="0px" y="0px"
	 viewBox="0 0 24 24" style="enable-background:new 0 0 24 24;" xml:space="preserve">
<style type="text/css">
	.st0{opacity:0.3;fill:#377DFF;enable-background:new    ;}
	.st1{fill:#377DFF;}
</style>
<path class="st0" d="M8.4,14l7.2-5.2L20,9.9V6l-4-2l-7,7l-4,1v2H8.4z"/>
<path class="st1" d="M21,18h-1v-6l-4-1l-7,5H6V3c0-0.6-0.4-1-1-1S4,2.4,4,3v15H3c-0.6,0-1,0.4-1,1s0.4,1,1,1h1v1c0,0.6,0.4,1,1,1
	s1-0.4,1-1v-1h15c0.6,0,1-0.4,1-1S21.6,18,21,18z"/>
</svg>
