<?xml version="1.0" encoding="utf-8"?>
<!-- Generator: Adobe Illustrator 26.0.3, SVG Export Plug-In . SVG Version: 6.00 Build 0)  -->
<svg version="1.1" id="Layer_1" xmlns="http://www.w3.org/2000/svg" xmlns:xlink="http://www.w3.org/1999/xlink" x="0px" y="0px"
	 viewBox="0 0 24 24" style="enable-background:new 0 0 24 24;" xml:space="preserve">
<style type="text/css">
	.st0{opacity:0.3;fill:#377DFF;enable-background:new    ;}
	.st1{fill:#377DFF;}
</style>
<path class="st0" d="M21,10.7H3c-0.6,0-1,0.4-1,1c0,0.6,0.4,1,1,1h3v2c0,3.3,2.7,6,6,6s6-2.7,6-6v-2h3c0.6,0,1-0.4,1-1
	C22,11.1,21.6,10.7,21,10.7z"/>
<path class="st1" d="M11.6,21.9c-0.2,0-0.4-0.1-0.6-0.2c-0.4-0.3-0.5-1-0.2-1.4c0.9-1.2,1.5-2.5,1.9-4c0.1-0.5,0.7-0.9,1.2-0.7
	c0.5,0.1,0.9,0.7,0.7,1.2c-0.4,1.7-1.2,3.3-2.2,4.7C12.2,21.7,11.9,21.9,11.6,21.9z M8.7,19.7c1.5-1.6,2.3-3.8,2.3-6v-5
	c0-0.6,0.4-1,1-1s1,0.4,1,1V13c0,0.6,0.4,1,1,1s1-0.4,1-1V8.7c0-1.7-1.3-3-3-3S9,7,9,8.7v5c0,1.7-0.6,3.4-1.8,4.6
	c-0.4,0.4-0.3,1,0.1,1.4C7.5,19.9,7.7,20,8,20S8.5,19.9,8.7,19.7z M6,16.7c0.5,0,1-0.5,1-1v-7c0-0.6,0.1-1.2,0.3-1.8
	c0.2-0.5-0.1-1.1-0.6-1.3C6.2,5.4,5.6,5.7,5.4,6.2C5.1,7,5,7.8,5,8.7v7v0.1C5,16.3,5.5,16.7,6,16.7z M9,4.7c0.5-0.4,1.1-0.6,1.7-0.8
	c0.5-0.1,0.8-0.7,0.7-1.2c-0.1-0.5-0.7-0.8-1.2-0.7C9.4,2.2,8.6,2.6,7.9,3.1c-0.4,0.3-0.5,1-0.2,1.4c0.2,0.3,0.5,0.4,0.8,0.4
	C8.6,4.9,8.8,4.8,9,4.7z M18.2,18.9c0.5-1.7,0.8-3.4,0.8-5.2v-5c0-3-1.9-5.6-4.7-6.6c-0.5-0.2-1.1,0.1-1.3,0.6s0.1,1.1,0.6,1.3
	c2,0.7,3.4,2.6,3.4,4.7v5c0,1.6-0.2,3.1-0.7,4.6c-0.2,0.5,0.1,1.1,0.6,1.3c0.1,0,0.2,0,0.3,0C17.7,19.6,18,19.3,18.2,18.9z"/>
</svg>
