<svg width="1920" height="400" viewBox="0 0 1920 400" fill="none" xmlns="http://www.w3.org/2000/svg">
<g clipPath="url(#clip0_173_2)">
<path d="M1920 0H0V400H1920V0Z" fill="#D9DEEA"/>
<mask id="mask0_173_2" style="mask-type:alpha" maskUnits="userSpaceOnUse" x="0" y="0" width="1920" height="400">
<path d="M1920 0H0V400H1920V0Z" fill="#D9DEEA"/>
</mask>
<g mask="url(#mask0_173_2)">
<path d="M1059.48 308.024C1152.75 57.0322 927.002 -103.239 802.469 -152.001L1805.22 -495.637L2095.53 351.501L1321.23 616.846C1195.12 618.485 966.212 559.015 1059.48 308.024Z" fill="#C0CBDD"/>
<path d="M1333.22 220.032C1468.66 -144.445 1140.84 -377.182 960 -447.991L2416.14 -947L2837.71 283.168L1713.32 668.487C1530.19 670.868 1197.78 584.509 1333.22 220.032Z" fill="#8192B0"/>
</g>
<path d="M-1 400H1920V127L-1 400Z" fill="white"/>
</g>
<defs>
<clipPath id="clip0_173_2">
<rect width="1920" height="400" fill="white"/>
</clipPath>
</defs>
</svg>
