<?xml version="1.0" encoding="utf-8"?>
<!-- Generator: Adobe Illustrator 26.0.3, SVG Export Plug-In . SVG Version: 6.00 Build 0)  -->
<svg version="1.1" id="Layer_1" xmlns="http://www.w3.org/2000/svg" xmlns:xlink="http://www.w3.org/1999/xlink" x="0px" y="0px"
	 viewBox="0 0 99 104" style="enable-background:new 0 0 99 104;" xml:space="preserve">
<style type="text/css">
	.st0{clipPath:url(#SVGID_00000034788200536878039750000010203554463205820087_);}
	.st1{fill:#FFFFFF;}
	.st2{fill:#E1E4EA;}
	.st3{fill:#6D4A96;}
	.st4{fill:#F9BF1C;}
	.st5{fill:#F7941E;}
	.st6{fill:#02B9FF;}
	.st7{fill:#008CFF;}
	.st8{fill:#956DAF;}
</style>
<g>
	<defs>
		<rect id="SVGID_1_" x="0.6" y="0" width="98.9" height="103.2"/>
	</defs>
	<clipPath id="SVGID_00000136402209217523524250000015697782303655855036_">
		<use xlink:href="#SVGID_1_"  style="overflow:visible;"/>
	</clipPath>
	<g style="clipPath:url(#SVGID_00000136402209217523524250000015697782303655855036_);">
		<path class="st1" d="M17.4,184.9v-28.2h18.3v5.2H24.2v6.1h8.6v5.2h-8.6v11.7H17.4z"/>
		<path class="st1" d="M45.2,162.5v4.2c1.6-2.9,3.7-4.4,6.4-4.4v7h-1.7c-1.6,0-2.8,0.4-3.5,1.1c-0.8,0.8-1.2,2.1-1.2,3.9v10.6h-6.8
			v-22.4H45.2z"/>
		<path class="st1" d="M55.1,182c-2.3-2.1-3.4-4.9-3.4-8.4s1.1-6.2,3.4-8.3c2.2-2.1,5-3.1,8.3-3.1s6.1,1,8.3,3.1
			c2.2,2.1,3.3,4.8,3.3,8.3s-1.1,6.2-3.3,8.4c-2.2,2.2-5,3.2-8.3,3.2S57.4,184.1,55.1,182z M66.7,177.9c0.9-1,1.4-2.4,1.4-4.2
			s-0.5-3.2-1.4-4.2s-2-1.4-3.3-1.4s-2.4,0.5-3.3,1.4c-0.9,1-1.4,2.3-1.4,4.2c0,1.9,0.5,3.2,1.4,4.2s2.1,1.4,3.3,1.4
			S65.8,178.8,66.7,177.9z"/>
		<path class="st1" d="M84.3,162.5v3.3c1.4-2.4,3.7-3.5,6.8-3.5c2.6,0,4.6,0.9,6.2,2.6c1.6,1.7,2.4,4,2.4,7V185h-6.8v-12.3
			c0-1.4-0.4-2.6-1.1-3.4c-0.8-0.8-1.8-1.2-3.1-1.2c-1.3,0-2.4,0.4-3.1,1.2c-0.8,0.8-1.1,1.9-1.1,3.4v12.2h-7.1v-22.4H84.3z"/>
		<path class="st1" d="M112.9,179.1h2.4v5.8h-3.5c-2.5,0-4.4-0.6-5.8-1.7c-1.4-1.1-2.1-3-2.1-5.7v-9.3h-2.1v-5.7h2.1V157h6.8v5.5
			h4.5v5.7h-4.5v9.3C110.8,178.5,111.5,179.1,112.9,179.1z"/>
	</g>
</g>
<g>
	<path class="st2" d="M67.5,50.2H32.7c-4,0-7.2-3.2-7.2-7.2V8.2c0-4,3.2-7.2,7.2-7.2h34.8c4,0,7.2,3.2,7.2,7.2V43
		C74.7,47,71.4,50.2,67.5,50.2z"/>
	<g id="XMLID_759_">
		<g id="XMLID_940_">
			<circle id="XMLID_942_" class="st3" cx="32.2" cy="23.5" r="2.6"/>
			<polygon id="XMLID_941_" class="st3" points="28.2,28.8 28.2,34.6 33.3,31.6 36.4,37.1 39.1,35.6 41.9,34 38.7,28.5 43.8,25.6 
				38.7,22.7 36.1,24.1 35.1,28.6 30.8,27.3 			"/>
		</g>
		<g id="XMLID_894_">
			<circle id="XMLID_939_" class="st4" cx="39.3" cy="40" r="2.6"/>
			<polygon id="XMLID_938_" class="st4" points="41.9,46.1 46.9,49 46.9,43.2 53.2,43.2 53.2,40 53.2,36.9 46.9,36.9 46.9,31 
				41.9,34 41.9,37 45.2,40 41.9,43.1 			"/>
		</g>
		<g id="XMLID_769_">
			<circle id="XMLID_893_" class="st5" cx="57.2" cy="42.2" r="2.6"/>
			<polygon id="XMLID_892_" class="st5" points="63.7,43 68.8,40 63.7,37.1 66.9,31.6 64.1,30.1 61.4,28.5 58.3,34 53.2,31 
				53.2,36.9 55.8,38.4 60.1,37 61.1,41.5 			"/>
		</g>
		<g id="XMLID_766_">
			<circle id="XMLID_768_" class="st6" cx="68" cy="27.7" r="2.6"/>
			<polygon id="XMLID_767_" class="st6" points="71.9,22.4 71.9,16.5 66.9,19.5 63.7,14 61,15.6 58.3,17.3 61.4,22.7 56.4,25.6 
				61.4,28.5 64,27 65,22.6 69.3,23.9 			"/>
		</g>
		<g id="XMLID_763_">
			<circle id="XMLID_765_" class="st7" cx="60.8" cy="11.2" r="2.6"/>
			<polygon id="XMLID_764_" class="st7" points="58.3,5.1 53.2,2.2 53.2,7.9 46.9,7.9 46.9,11.2 46.9,14.3 53.2,14.3 53.2,20.2 
				58.3,17.3 58.3,14.2 54.9,11.2 58.3,8 			"/>
		</g>
		<g id="XMLID_760_">
			<circle id="XMLID_762_" class="st8" cx="42.9" cy="9.1" r="2.6"/>
			<polygon id="XMLID_761_" class="st8" points="36.4,8.2 31.3,11.2 36.4,14 33.3,19.5 36,21.1 38.7,22.7 41.9,17.3 46.9,20.2 
				46.9,14.3 44.3,12.8 39.9,14.1 38.9,9.8 			"/>
		</g>
	</g>
</g>
<g>
	<path id="XMLID_757_" class="st1" d="M2.3,93.6l3.4-4.8c2.1,2.2,5.4,4.1,9.5,4.1c3.5,0,5.2-1.6,5.2-3.3c0-5.3-17.2-1.7-17.2-12.9
		c0-5,4.3-9.1,11.4-9.1c4.8,0,8.8,1.5,11.7,4.2l-3.5,4.7c-2.5-2.4-5.7-3.4-8.8-3.4c-2.7,0-4.3,1.3-4.3,3c0,4.8,17.2,1.6,17.2,12.7
		c0,5.5-3.9,9.6-12,9.6C9.2,98.4,5.1,96.4,2.3,93.6z"/>
	<path id="XMLID_741_" class="st1" d="M55,97.7V85.2H40.9v12.6h-6.4v-30h6.4v11.8h14.2V67.8h6.5v29.9C61.6,97.7,55,97.7,55,97.7z"/>
	<path id="XMLID_680_" class="st1" d="M69.1,82.7c0-9.5,7.2-15.5,16-15.5c6.3,0,10.1,3.1,12.4,6.7l-5.3,2.9
		c-1.4-2.1-3.9-3.9-7.1-3.9c-5.4,0-9.4,4.2-9.4,9.8c0,5.6,4,9.8,9.4,9.8c2.6,0,5.2-1.1,6.4-2.3v-3.5h-7.9v-5.5h14.3v11.5
		c-3,3.4-7.3,5.6-12.7,5.6C76.2,98.4,69.1,92.2,69.1,82.7z"/>
</g>
</svg>
