<?xml version="1.0" encoding="utf-8"?>
<!-- Generator: Adobe Illustrator 26.0.3, SVG Export Plug-In . SVG Version: 6.00 Build 0)  -->
<svg version="1.1" id="Layer_1" xmlns="http://www.w3.org/2000/svg" xmlns:xlink="http://www.w3.org/1999/xlink" x="0px" y="0px"
	 viewBox="0 0 155 47" style="enable-background:new 0 0 155 47;" xml:space="preserve">
<style type="text/css">
	.st0{fill:#FFFFFF;}
</style>
<g>
	<g id="XMLID_759_">
		<g id="XMLID_940_">
			<circle id="XMLID_942_" class="st0" cx="6.3" cy="21.4" r="2.6"/>
			<polygon id="XMLID_941_" class="st0" points="2.4,26.6 2.4,32.4 7.4,29.4 10.5,34.9 13.2,33.4 15.9,31.7 12.8,26.3 17.8,23.4 
				12.8,20.6 10.2,22 9.2,26.4 5,25.1 			"/>
		</g>
		<g id="XMLID_894_">
			<circle id="XMLID_939_" class="st0" cx="13.4" cy="37.8" r="2.6"/>
			<polygon id="XMLID_938_" class="st0" points="15.9,43.8 20.9,46.7 20.9,40.9 27.1,40.9 27.1,37.8 27.1,34.7 20.9,34.7 20.9,28.8 
				15.9,31.7 15.9,34.8 19.2,37.8 15.9,40.8 			"/>
		</g>
		<g id="XMLID_769_">
			<circle id="XMLID_893_" class="st0" cx="31" cy="39.9" r="2.6"/>
			<polygon id="XMLID_892_" class="st0" points="37.5,40.7 42.5,37.8 37.5,34.9 40.6,29.4 37.9,27.9 35.2,26.3 32.1,31.7 27.1,28.8 
				27.1,34.7 29.7,36.2 33.9,34.8 34.9,39.2 			"/>
		</g>
		<g id="XMLID_766_">
			<circle id="XMLID_768_" class="st0" cx="41.7" cy="25.5" r="2.6"/>
			<polygon id="XMLID_767_" class="st0" points="45.6,20.3 45.6,14.6 40.6,17.4 37.5,12.1 34.8,13.6 32.1,15.2 35.2,20.6 30.2,23.4 
				35.2,26.3 37.8,24.8 38.7,20.5 43,21.8 			"/>
		</g>
		<g id="XMLID_763_">
			<circle id="XMLID_765_" class="st0" cx="34.6" cy="9.2" r="2.6"/>
			<polygon id="XMLID_764_" class="st0" points="32.1,3.2 27.1,0.3 27.1,6 20.9,6 20.9,9.2 20.9,12.3 27.1,12.3 27.1,18.1 
				32.1,15.2 32.1,12.2 28.8,9.2 32.1,6.1 			"/>
		</g>
		<g id="XMLID_760_">
			<circle id="XMLID_762_" class="st0" cx="16.9" cy="7.1" r="2.6"/>
			<polygon id="XMLID_761_" class="st0" points="10.5,6.3 5.5,9.2 10.5,12.1 7.4,17.4 10.1,19 12.8,20.6 15.9,15.2 20.9,18.1 
				20.9,12.3 18.3,10.8 14,12.1 13,7.8 			"/>
		</g>
	</g>
	<g>
		<path id="XMLID_757_" class="st0" d="M61.2,33.8l3.3-4.6c2,2.1,5.2,3.9,9.1,3.9c3.4,0,5-1.5,5-3.2c0-5.1-16.5-1.6-16.5-12.4
			c0-4.8,4.1-8.7,10.9-8.7c4.6,0,8.4,1.4,11.2,4l-3.4,4.5c-2.4-2.3-5.5-3.3-8.4-3.3c-2.6,0-4.1,1.2-4.1,2.9
			c0,4.6,16.5,1.5,16.5,12.2c0,5.3-3.7,9.2-11.5,9.2C67.8,38.4,63.8,36.5,61.2,33.8z"/>
		<path id="XMLID_741_" class="st0" d="M111.7,37.8v-12H98.2v12.1h-6.1V9.1h6.1v11.3h13.6V9.1h6.2v28.7
			C118,37.8,111.7,37.8,111.7,37.8z"/>
		<path id="XMLID_680_" class="st0" d="M125.2,23.4c0-9.1,6.9-14.9,15.3-14.9c6,0,9.7,3,11.9,6.4l-5.1,2.8c-1.3-2-3.7-3.7-6.8-3.7
			c-5.2,0-9,4-9,9.4s3.8,9.4,9,9.4c2.5,0,5-1.1,6.1-2.2v-3.4h-7.6v-5.3h13.7v11c-2.9,3.3-7,5.4-12.2,5.4
			C132,38.4,125.2,32.5,125.2,23.4z"/>
	</g>
</g>
</svg>
