<?xml version="1.0" encoding="utf-8"?>
<!-- Generator: Adobe Illustrator 26.0.3, SVG Export Plug-In . SVG Version: 6.00 Build 0)  -->
<svg version="1.1" id="Layer_1" xmlns="http://www.w3.org/2000/svg" xmlns:xlink="http://www.w3.org/1999/xlink" x="0px" y="0px"
	 viewBox="0 0 99 104" style="enable-background:new 0 0 99 104;" xml:space="preserve">
<style type="text/css">
	.st0{clipPath:url(#SVGID_00000066502597734337644870000001634623996680832680_);}
	.st1{opacity:0.7;fill:#377DFF;enable-background:new    ;}
	.st2{fill:#6D4A96;}
	.st3{fill:#F9BF1C;}
	.st4{fill:#F7941E;}
	.st5{fill:#02B9FF;}
	.st6{fill:#008CFF;}
	.st7{fill:#956DAF;}
	.st8{fill:#211E66;}
</style>
<g>
	<defs>
		<rect id="SVGID_1_" width="98.9" height="103.2"/>
	</defs>
	<clipPath id="SVGID_00000035525475468755498300000004700717009820501376_">
		<use xlink:href="#SVGID_1_"  style="overflow:visible;"/>
	</clipPath>
	<g style="clipPath:url(#SVGID_00000035525475468755498300000004700717009820501376_);">
		<path class="st1" d="M-65,34.2c-9.9,0-18-8-18-18c0-9.9,8-18,18-18h11.3c3.7,0,6.6,3,6.6,6.6v11.4C-47.1,26.2-55.1,34.2-65,34.2z"
			/>
	</g>
</g>
<g id="XMLID_759_">
	<g id="XMLID_940_">
		<circle id="XMLID_942_" class="st2" cx="31.5" cy="21.6" r="2.6"/>
		<polygon id="XMLID_941_" class="st2" points="27.5,26.9 27.5,32.8 32.5,29.8 35.7,35.3 38.5,33.7 41.2,32.1 38.1,26.6 43.2,23.7 
			38.1,20.7 35.4,22.3 34.4,26.7 30.1,25.4 		"/>
	</g>
	<g id="XMLID_894_">
		<circle id="XMLID_939_" class="st3" cx="38.7" cy="38.2" r="2.6"/>
		<polygon id="XMLID_938_" class="st3" points="41.2,44.4 46.3,47.3 46.3,41.4 52.7,41.4 52.7,38.2 52.7,35.1 46.3,35.1 46.3,29.2 
			41.2,32.1 41.2,35.1 44.6,38.2 41.2,41.4 		"/>
	</g>
	<g id="XMLID_769_">
		<circle id="XMLID_893_" class="st4" cx="56.7" cy="40.4" r="2.6"/>
		<polygon id="XMLID_892_" class="st4" points="63.3,41.2 68.4,38.2 63.3,35.3 66.5,29.8 63.7,28.2 60.9,26.6 57.8,32.1 52.7,29.2 
			52.7,35.1 55.3,36.6 59.7,35.2 60.7,39.7 		"/>
	</g>
	<g id="XMLID_766_">
		<circle id="XMLID_768_" class="st5" cx="67.5" cy="25.8" r="2.6"/>
		<polygon id="XMLID_767_" class="st5" points="71.5,20.5 71.5,14.6 66.5,17.6 63.3,12.1 60.5,13.7 57.8,15.3 60.9,20.7 55.8,23.7 
			60.9,26.6 63.6,25.1 64.6,20.7 68.9,22 		"/>
	</g>
	<g id="XMLID_763_">
		<circle id="XMLID_765_" class="st6" cx="60.3" cy="9.1" r="2.6"/>
		<polygon id="XMLID_764_" class="st6" points="57.8,3 52.7,0.1 52.7,5.9 46.3,5.9 46.3,9.1 46.3,12.3 52.7,12.3 52.7,18.2 
			57.8,15.3 57.8,12.2 54.4,9.1 57.8,6 		"/>
	</g>
	<g id="XMLID_760_">
		<circle id="XMLID_762_" class="st7" cx="42.3" cy="7" r="2.6"/>
		<polygon id="XMLID_761_" class="st7" points="35.7,6.2 30.6,9.1 35.7,12.1 32.5,17.6 35.3,19.2 38.1,20.7 41.2,15.3 46.3,18.2 
			46.3,12.3 43.7,10.8 39.3,12.2 38.3,7.7 		"/>
	</g>
</g>
<g>
	<path id="XMLID_757_" class="st8" d="M0.9,81.4l3.5-4.9c2.1,2.2,5.5,4.1,9.7,4.1c3.6,0,5.3-1.6,5.3-3.4c0-5.4-17.5-1.7-17.5-13.2
		c0-5.1,4.4-9.3,11.6-9.3c4.8,0,8.9,1.5,11.9,4.3l-3.6,4.8c-2.5-2.3-5.8-3.3-8.9-3.3c-2.8,0-4.3,1.2-4.3,3.1c0,4.8,17.5,1.6,17.5,13
		c0,5.6-4,9.8-12.2,9.8C8,86.3,3.8,84.3,0.9,81.4z"/>
	<path id="XMLID_741_" class="st8" d="M54.6,85.7V72.9H40.2v12.8h-6.5V55.2h6.5v12h14.4v-12h6.5v30.5H54.6z"/>
	<path id="XMLID_680_" class="st8" d="M68.9,70.5c0-9.6,7.3-15.8,16.2-15.8c6.4,0,10.3,3.2,12.6,6.8l-5.4,2.9c-1.4-2.1-4-4-7.2-4
		c-5.5,0-9.6,4.3-9.6,10s4,10,9.6,10c2.7,0,5.3-1.2,6.5-2.3v-3.7h-8v-5.7h14.5v11.7c-3.1,3.5-7.4,5.8-13,5.8
		C76.2,86.3,68.9,80.1,68.9,70.5z"/>
</g>
<g>
	<path id="XMLID_678_" class="st8" d="M8.7,100.5v-4.4H3.1v4.4H1.9V91h1.2v4.1h5.6V91h1.2v9.6H8.7z"/>
	<path id="XMLID_676_" class="st8" d="M13.1,100.5V91h6.3V92h-5.1v3.1h5v1.1h-5v3.3h5.1v1.1H13.1z"/>
	<path id="XMLID_673_" class="st8" d="M29.3,100.5l-0.8-2.1h-4.8l-0.8,2.1h-1.4l3.8-9.6h1.5l3.9,9.6H29.3z M26.1,92.2l-2,5.1h4.1
		L26.1,92.2z"/>
	<path id="XMLID_671_" class="st8" d="M33,100.5V91h1.2v8.5h4.4v1.1H33z"/>
	<path id="XMLID_669_" class="st8" d="M42.1,100.5V92h-3V91h7.2V92h-3v8.5H42.1z"/>
	<path id="XMLID_648_" class="st8" d="M55.5,100.5v-4.4H50v4.4h-1.2V91H50v4.1h5.6V91h1.2v9.6H55.5z"/>
	<path id="XMLID_645_" class="st8" d="M59.6,95.8c0-2.9,2.2-4.9,4.9-4.9c1.7,0,2.9,0.8,3.6,1.9l-1,0.6c-0.5-0.8-1.5-1.4-2.6-1.4
		c-2.1,0-3.7,1.6-3.7,3.9c0,2.3,1.6,3.9,3.7,3.9c1.1,0,2.1-0.6,2.6-1.4l1,0.6c-0.8,1.1-1.9,1.9-3.6,1.9
		C61.7,100.7,59.6,98.7,59.6,95.8z"/>
	<path id="XMLID_636_" class="st8" d="M77.6,100.5l-0.8-2.1H72l-0.8,2.1h-1.4l3.8-9.6h1.5l3.9,9.6H77.6z M74.3,92.2l-2,5.1h4.1
		L74.3,92.2z"/>
	<path id="XMLID_633_" class="st8" d="M86.7,100.5l-2.4-3.8h-1.9v3.8h-1.2V91H85c1.7,0,3,1.1,3,2.9c0,1.7-1.2,2.7-2.5,2.8l2.6,3.9
		H86.7z M86.8,93.9c0-1.1-0.8-1.8-1.9-1.8h-2.5v3.7h2.5C86,95.7,86.8,94.9,86.8,93.9z"/>
	<path id="XMLID_631_" class="st8" d="M90.9,100.5V91h6.3V92H92v3.1h5v1.1h-5v3.3h5.1v1.1H90.9z"/>
</g>
</svg>
