<?xml version="1.0" encoding="utf-8"?>
<!-- Generator: Adobe Illustrator 26.0.3, SVG Export Plug-In . SVG Version: 6.00 Build 0)  -->
<svg version="1.1" id="Layer_1" xmlns="http://www.w3.org/2000/svg" xmlns:xlink="http://www.w3.org/1999/xlink" x="0px" y="0px"
	 viewBox="0 0 155 47" style="enable-background:new 0 0 155 47;" xml:space="preserve">
<style type="text/css">
	.st0{fill:#6D4A96;}
	.st1{fill:#F9BF1C;}
	.st2{fill:#F7941E;}
	.st3{fill:#02B9FF;}
	.st4{fill:#008CFF;}
	.st5{fill:#956DAF;}
	.st6{fill:#FFFFFF;}
</style>
<g>
	<g>
		<defs>
			<rect id="SVGID_1_" x="0.1" y="0.2" width="154.9" height="46.1"/>
		</defs>
		<clipPath id="SVGID_00000021829597196917383530000011076349396777940150_">
			<use xlink:href="#SVGID_1_"  style="overflow:visible;"/>
		</clipPath>
	</g>
	<g id="XMLID_759_">
		<g id="XMLID_940_">
			<circle id="XMLID_942_" class="st0" cx="4.3" cy="21.6" r="2.6"/>
			<polygon id="XMLID_941_" class="st0" points="0.3,26.8 0.3,32.6 5.3,29.7 8.4,35.1 11.1,33.5 13.8,31.9 10.7,26.6 15.7,23.7 
				10.7,20.8 8.2,22.3 7.2,26.7 2.9,25.3 			"/>
		</g>
		<g id="XMLID_894_">
			<circle id="XMLID_939_" class="st1" cx="11.3" cy="38" r="2.6"/>
			<polygon id="XMLID_938_" class="st1" points="13.8,44 18.8,46.8 18.8,41.1 25,41.1 25,38 25,34.8 18.8,34.8 18.8,29.1 13.8,31.9 
				13.8,34.9 17.1,38 13.8,41 			"/>
		</g>
		<g id="XMLID_769_">
			<circle id="XMLID_893_" class="st2" cx="29" cy="40" r="2.6"/>
			<polygon id="XMLID_892_" class="st2" points="35.5,40.8 40.4,38 35.5,35.1 38.6,29.7 35.8,28.1 33.1,26.6 30,31.9 25,29.1 
				25,34.8 27.6,36.3 31.9,35 32.9,39.4 			"/>
		</g>
		<g id="XMLID_766_">
			<circle id="XMLID_768_" class="st3" cx="39.6" cy="25.8" r="2.6"/>
			<polygon id="XMLID_767_" class="st3" points="43.5,20.6 43.5,14.8 38.6,17.7 35.5,12.3 32.7,13.9 30,15.4 33.1,20.8 28.2,23.7 
				33.1,26.6 35.7,25.1 36.7,20.7 41,22 			"/>
		</g>
		<g id="XMLID_763_">
			<circle id="XMLID_765_" class="st4" cx="32.6" cy="9.4" r="2.6"/>
			<polygon id="XMLID_764_" class="st4" points="30,3.4 25,0.5 25,6.3 18.8,6.3 18.8,9.4 18.8,12.5 25,12.5 25,18.3 30,15.4 
				30,12.5 26.7,9.4 30,6.4 			"/>
		</g>
		<g id="XMLID_760_">
			<circle id="XMLID_762_" class="st5" cx="14.9" cy="7.4" r="2.6"/>
			<polygon id="XMLID_761_" class="st5" points="8.4,6.5 3.4,9.4 8.4,12.3 5.3,17.7 8,19.2 10.7,20.8 13.8,15.4 18.8,18.3 
				18.8,12.5 16.3,11.1 12,12.4 11,8 			"/>
		</g>
	</g>
	<g>
		<path id="XMLID_757_" class="st6" d="M59.1,34l3.3-4.6c2,2.1,5.2,3.9,9.1,3.9c3.4,0,5-1.5,5-3.2c0-5.1-16.5-1.6-16.5-12.4
			c0-4.8,4.1-8.7,10.9-8.7c4.6,0,8.4,1.4,11.2,4l-3.4,4.5c-2.3-2.2-5.4-3.1-8.4-3.1c-2.6,0-4.1,1.2-4.1,2.9
			c0,4.6,16.5,1.5,16.5,12.2c0,5.3-3.7,9.2-11.5,9.2C65.8,38.5,61.8,36.7,59.1,34z"/>
		<path id="XMLID_741_" class="st6" d="M109.7,38V25.9H96.1V38H90V9.3h6.1v11.3h13.6V9.3h6.2V38H109.7z"/>
		<path id="XMLID_680_" class="st6" d="M123.1,23.7c0-9.1,6.9-14.9,15.3-14.9c6,0,9.7,3,11.9,6.4l-5.1,2.8c-1.3-2-3.7-3.7-6.8-3.7
			c-5.2,0-9,4-9,9.4s3.8,9.4,9,9.4c2.5,0,5-1.1,6.1-2.2v-3.4h-7.6v-5.3h13.7v11c-2.9,3.3-7,5.4-12.2,5.4
			C130,38.6,123.1,32.7,123.1,23.7z"/>
	</g>
</g>
</svg>
