<?xml version="1.0" encoding="utf-8"?>
<!-- Generator: Adobe Illustrator 26.0.3, SVG Export Plug-In . SVG Version: 6.00 Build 0)  -->
<svg version="1.1" id="Layer_1" xmlns="http://www.w3.org/2000/svg" xmlns:xlink="http://www.w3.org/1999/xlink" x="0px" y="0px"
	 viewBox="0 0 46 47" style="enable-background:new 0 0 46 47;" xml:space="preserve">
<style type="text/css">
	.st0{opacity:0.5;fill:#FFFFFF;enable-background:new    ;}
	.st1{fill:#6D4A96;}
	.st2{fill:#F9BF1C;}
	.st3{fill:#F7941E;}
	.st4{fill:#02B9FF;}
	.st5{fill:#008CFF;}
	.st6{fill:#956DAF;}
</style>
<path class="st0" d="M40.9,47H5.1C2.3,47,0,44.7,0,41.9V5.1C0,2.3,2.3,0,5.1,0h35.7C43.7,0,46,2.3,46,5.1v36.7
	C46,44.7,43.7,47,40.9,47z"/>
<g id="XMLID_759_">
	<g id="XMLID_940_">
		<circle id="XMLID_942_" class="st1" cx="5.9" cy="21.5" r="2.5"/>
		<polygon id="XMLID_941_" class="st1" points="2,26.5 2,32.1 6.9,29.3 9.9,34.5 12.5,33 15.1,31.5 12.1,26.3 17,23.5 12.1,20.7 
			9.6,22.1 8.7,26.4 4.5,25.1 		"/>
	</g>
	<g id="XMLID_894_">
		<circle id="XMLID_939_" class="st2" cx="12.7" cy="37.3" r="2.5"/>
		<polygon id="XMLID_938_" class="st2" points="15.1,43.2 20,46 20,40.4 26,40.4 26,37.3 26,34.3 20,34.3 20,28.7 15.1,31.5 
			15.1,34.4 18.3,37.3 15.1,40.3 		"/>
	</g>
	<g id="XMLID_769_">
		<circle id="XMLID_893_" class="st3" cx="29.8" cy="39.3" r="2.5"/>
		<polygon id="XMLID_892_" class="st3" points="36.1,40.1 40.9,37.3 36.1,34.5 39.1,29.3 36.5,27.8 33.9,26.3 30.9,31.5 26,28.7 
			26,34.3 28.5,35.7 32.7,34.5 33.6,38.7 		"/>
	</g>
	<g id="XMLID_766_">
		<circle id="XMLID_768_" class="st4" cx="40.1" cy="25.5" r="2.5"/>
		<polygon id="XMLID_767_" class="st4" points="44,20.5 44,14.9 39.1,17.7 36.1,12.5 33.5,14 30.9,15.5 33.9,20.7 29,23.5 
			33.9,26.3 36.4,24.9 37.3,20.6 41.5,21.9 		"/>
	</g>
	<g id="XMLID_763_">
		<circle id="XMLID_765_" class="st5" cx="33.3" cy="9.7" r="2.5"/>
		<polygon id="XMLID_764_" class="st5" points="30.9,3.8 26,1 26,6.6 20,6.6 20,9.7 20,12.7 26,12.7 26,18.3 30.9,15.5 30.9,12.6 
			27.7,9.7 30.9,6.7 		"/>
	</g>
	<g id="XMLID_760_">
		<circle id="XMLID_762_" class="st6" cx="16.2" cy="7.7" r="2.5"/>
		<polygon id="XMLID_761_" class="st6" points="9.9,6.9 5.1,9.7 9.9,12.5 6.9,17.7 9.5,19.2 12.1,20.7 15.1,15.5 20,18.3 20,12.7 
			17.5,11.3 13.3,12.5 12.4,8.3 		"/>
	</g>
</g>
</svg>
