<svg width="50" height="50" viewBox="0 0 50 50" fill="none" xmlns="http://www.w3.org/2000/svg">
<path d="M18.9991 16.7364C18.9991 16.523 19.0657 16.3362 19.1991 16.1761C19.3324 16.0161 19.5057 15.936 19.7191 15.936H21.2391C21.4524 15.936 21.6391 16.0161 21.7991 16.1761C21.9591 16.3362 22.0391 16.523 22.0391 16.7364V18.2571C21.9857 18.4705 21.8924 18.6439 21.7591 18.7773C21.6257 18.9107 21.4524 18.9774 21.2391 18.9774H19.7191C19.5057 18.9774 19.3324 18.9107 19.1991 18.7773C19.0657 18.6439 18.9991 18.4705 18.9991 18.2571V16.7364ZM23.4791 16.7364C23.4791 16.523 23.5591 16.3362 23.7191 16.1761C23.8791 16.0161 24.0657 15.936 24.2791 15.936H25.7191C25.9324 15.936 26.1191 16.0161 26.2791 16.1761C26.4391 16.3362 26.5191 16.523 26.5191 16.7364V18.2571C26.5191 18.4705 26.4391 18.6439 26.2791 18.7773C26.1191 18.9107 25.9324 18.9774 25.7191 18.9774H24.2791C24.0657 18.9774 23.8791 18.9107 23.7191 18.7773C23.5591 18.6439 23.4791 18.4705 23.4791 18.2571V16.7364ZM28.7591 15.936C28.5457 15.936 28.3724 16.0161 28.2391 16.1761C28.1057 16.3362 28.0124 16.523 27.9591 16.7364V18.2571C28.0124 18.4705 28.1057 18.6439 28.2391 18.7773C28.3724 18.9107 28.5457 18.9774 28.7591 18.9774H30.2791C30.4924 18.9774 30.6657 18.9107 30.7991 18.7773C30.9324 18.6439 30.9991 18.4705 30.9991 18.2571V16.7364C30.9991 16.523 30.9324 16.3362 30.7991 16.1761C30.6657 16.0161 30.4924 15.936 30.2791 15.936H28.7591ZM18.9991 21.2184C18.9991 21.0049 19.0657 20.8315 19.1991 20.6981C19.3324 20.5648 19.5057 20.4981 19.7191 20.4981H21.2391C21.4524 20.4981 21.6391 20.5648 21.7991 20.6981C21.9591 20.8315 22.0391 21.0049 22.0391 21.2184V22.739C21.9857 22.9525 21.8924 23.1259 21.7591 23.2593C21.6257 23.3927 21.4524 23.4594 21.2391 23.4594H19.7191C19.5057 23.4594 19.3324 23.3927 19.1991 23.2593C19.0657 23.1259 18.9991 22.9525 18.9991 22.739V21.2184ZM24.2791 20.4981C24.0657 20.4981 23.8791 20.5648 23.7191 20.6981C23.5591 20.8315 23.4791 21.0049 23.4791 21.2184V22.739C23.4791 22.9525 23.5591 23.1259 23.7191 23.2593C23.8791 23.3927 24.0657 23.4594 24.2791 23.4594H25.7191C25.9324 23.4594 26.1191 23.3927 26.2791 23.2593C26.4391 23.1259 26.5191 22.9525 26.5191 22.739V21.2184C26.5191 21.0049 26.4391 20.8315 26.2791 20.6981C26.1191 20.5648 25.9324 20.4981 25.7191 20.4981H24.2791ZM28.0391 21.2184C28.0391 21.0049 28.1057 20.8315 28.2391 20.6981C28.3724 20.5648 28.5457 20.4981 28.7591 20.4981H30.2791C30.4924 20.4981 30.6657 20.5648 30.7991 20.6981C30.9324 20.8315 30.9991 21.0049 30.9991 21.2184V22.739C30.9991 22.9525 30.9324 23.1259 30.7991 23.2593C30.6657 23.3927 30.4924 23.4594 30.2791 23.4594H28.7591C28.5457 23.4594 28.3724 23.3927 28.2391 23.2593C28.1057 23.1259 28.0124 22.9525 27.9591 22.739L28.0391 21.2184ZM19.7191 24.98C19.5057 24.98 19.3324 25.0467 19.1991 25.1801C19.0657 25.3135 18.9991 25.4869 18.9991 25.7004V27.221C18.9991 27.4345 19.0657 27.6212 19.1991 27.7813C19.3324 27.9413 19.5057 28.0214 19.7191 28.0214H21.2391C21.4524 28.0214 21.6391 27.9413 21.7991 27.7813C21.9591 27.6212 22.0391 27.4345 22.0391 27.221V25.7004C21.9857 25.4869 21.8924 25.3135 21.7591 25.1801C21.6257 25.0467 21.4524 24.98 21.2391 24.98H19.7191ZM23.4791 25.7004C23.4791 25.4869 23.5591 25.3135 23.7191 25.1801C23.8791 25.0467 24.0657 24.98 24.2791 24.98H25.7191C25.9324 24.98 26.1191 25.0467 26.2791 25.1801C26.4391 25.3135 26.5191 25.4869 26.5191 25.7004V27.221C26.5191 27.4345 26.4391 27.6212 26.2791 27.7813C26.1191 27.9413 25.9324 28.0214 25.7191 28.0214H24.2791C24.0657 28.0214 23.8791 27.9413 23.7191 27.7813C23.5591 27.6212 23.4791 27.4345 23.4791 27.221V25.7004ZM28.7591 24.98C28.5457 24.98 28.3591 25.0467 28.1991 25.1801C28.0391 25.3135 27.9591 25.4869 27.9591 25.7004V27.221C28.0124 27.4345 28.1057 27.6212 28.2391 27.7813C28.3724 27.9413 28.5457 28.0214 28.7591 28.0214H30.2791C30.4924 28.0214 30.6657 27.9413 30.7991 27.7813C30.9324 27.6212 30.9991 27.4345 30.9991 27.221V25.7004C30.9991 25.4869 30.9324 25.3135 30.7991 25.1801C30.6657 25.0467 30.4924 24.98 30.2791 24.98H28.7591ZM16.0391 14.4954C16.0391 14.0685 16.1724 13.7084 16.4391 13.4149C16.7057 13.1215 17.0524 12.9747 17.4791 12.9747H32.5191C32.9457 12.9747 33.3057 13.1215 33.5991 13.4149C33.8924 13.7084 34.0391 14.0685 34.0391 14.4954V35.4647C34.0391 35.8915 33.8924 36.2517 33.5991 36.5452C33.3057 36.8386 32.9457 36.9854 32.5191 36.9854H17.4791C17.0524 36.9854 16.7057 36.8386 16.4391 36.5452C16.1724 36.2517 16.0391 35.8915 16.0391 35.4647V14.4954ZM32.5191 14.4954H17.4791V35.4647H22.0391V31.703C21.9857 31.4896 22.0391 31.3162 22.1991 31.1828C22.3591 31.0494 22.5457 30.9827 22.7591 30.9827H27.2391C27.4524 30.9827 27.6391 31.0494 27.7991 31.1828C27.9591 31.3162 28.0391 31.4896 28.0391 31.703V35.4647H32.5191V14.4954Z" fill="#377DFF"/>
</svg>
