<svg width="50" height="50" viewBox="0 0 50 50" fill="none" xmlns="http://www.w3.org/2000/svg">
<path d="M20.28 20.9L18.84 23.78C18.7333 24.0466 18.76 24.3 18.92 24.54C19.08 24.78 19.32 24.9 19.64 24.9C21.72 24.6866 23.5067 24.58 25 24.58C26.4933 24.58 28.28 24.6866 30.36 24.9C30.68 24.9 30.92 24.78 31.08 24.54C31.24 24.3 31.2667 24.0466 31.16 23.78L29.72 20.9C29.56 20.6333 29.32 20.5 29 20.5H21C20.68 20.5 20.44 20.6333 20.28 20.9ZM19 27.94C19 28.3666 18.8533 28.7266 18.56 29.02C18.2667 29.3133 17.9067 29.46 17.48 29.46C17.0533 29.46 16.7067 29.3133 16.44 29.02C16.1733 28.7266 16.04 28.38 16.04 27.98C16.04 27.58 16.1733 27.2333 16.44 26.94C16.7067 26.6466 17.0533 26.5 17.48 26.5C17.9067 26.5 18.2667 26.6466 18.56 26.94C18.8533 27.2333 19 27.5933 19 28.02V27.94ZM34.04 27.94C34.04 28.3666 33.8933 28.7266 33.6 29.02C33.3067 29.3133 32.9467 29.46 32.52 29.46C32.0933 29.46 31.7333 29.3133 31.44 29.02C31.1467 28.7266 31 28.38 31 27.98C31 27.58 31.1467 27.2333 31.44 26.94C31.7333 26.6466 32.0933 26.5 32.52 26.5C32.9467 26.5 33.3067 26.6466 33.6 26.94C33.8933 27.2333 34.04 27.5933 34.04 28.02V27.94ZM20.52 27.94C20.52 27.5666 20.6667 27.2333 20.96 26.94C21.2533 26.6466 21.6133 26.5 22.04 26.5H28.04C28.4133 26.5 28.7467 26.6466 29.04 26.94C29.3333 27.2333 29.48 27.58 29.48 27.98C29.48 28.38 29.3333 28.7266 29.04 29.02C28.7467 29.3133 28.3867 29.46 27.96 29.46H22.04C21.6133 29.46 21.2533 29.3133 20.96 29.02C20.6667 28.7266 20.52 28.3666 20.52 27.94ZM22.04 14.5C21.6133 14.5 21.2533 14.6466 20.96 14.94C20.6667 15.2333 20.52 15.5666 20.52 15.94V17.46H20.2C19.4533 17.46 18.7733 17.6733 18.16 18.1C17.5467 18.5266 17.08 19.0866 16.76 19.78L15.56 22.5C15.4533 22.7666 15.2667 22.98 15 23.14C14.6267 23.3 14.32 23.5533 14.08 23.9C13.84 24.2466 13.6667 24.6333 13.56 25.06L13.08 27.54C13.0267 27.8066 13 28.0466 13 28.26V28.9C13 29.4866 13.1333 30.0466 13.4 30.58C13.6667 31.1133 14.04 31.54 14.52 31.86V34.74C14.52 34.9533 14.5867 35.1266 14.72 35.26C14.8533 35.3933 15.0267 35.46 15.24 35.46H18.28C18.4933 35.46 18.6667 35.3933 18.8 35.26C18.9333 35.1266 19 34.9533 19 34.74V32.74C21.3467 32.7933 23.3467 32.82 25 32.82C26.6533 32.82 28.6533 32.7933 31 32.74V34.74C31 34.9533 31.08 35.1266 31.24 35.26C31.4 35.3933 31.56 35.46 31.72 35.46H34.76C34.9733 35.46 35.1467 35.3933 35.28 35.26C35.4133 35.1266 35.48 34.9533 35.48 34.74V31.86C35.96 31.54 36.3333 31.1133 36.6 30.58C36.8667 30.0466 37 29.4866 37 28.9V28.26C37 28.0466 36.9733 27.8066 36.92 27.54L36.44 25.06C36.3333 24.6333 36.16 24.2466 35.92 23.9C35.68 23.5533 35.3733 23.3 35 23.14C34.7333 22.98 34.5467 22.7666 34.44 22.5L33.24 19.78C32.92 19.0866 32.4533 18.5266 31.84 18.1C31.2267 17.6733 30.5467 17.46 29.8 17.46H29.48V15.94C29.48 15.5666 29.3333 15.2333 29.04 14.94C28.7467 14.6466 28.3867 14.5 27.96 14.5H22.04ZM20.2 18.98H29.8C30.2267 18.98 30.6267 19.1 31 19.34C31.3733 19.58 31.6667 19.9133 31.88 20.34L33 23.14C33.2667 23.7266 33.6933 24.18 34.28 24.5C34.6533 24.66 34.8667 24.9266 34.92 25.3L35.48 27.86V28.26V28.9C35.48 29.4866 35.28 29.9933 34.88 30.42C34.48 30.8466 33.9867 31.0866 33.4 31.14C29.9333 31.3 27.12 31.38 24.96 31.38C22.8 31.38 20.0133 31.3 16.6 31.14C16.0133 31.0866 15.52 30.8466 15.12 30.42C14.72 29.9933 14.52 29.4866 14.52 28.9V28.26V27.86L15.08 25.3C15.1333 24.9266 15.3467 24.66 15.72 24.5C16.3067 24.18 16.7333 23.7266 17 23.14L18.2 20.34C18.36 19.9133 18.6267 19.58 19 19.34C19.3733 19.1 19.7733 18.98 20.2 18.98Z" fill="#377DFF"/>
</svg>
