<svg width="50" height="50" viewBox="0 0 50 50" fill="none" xmlns="http://www.w3.org/2000/svg">
<path d="M25 18.9799C25.2133 18.9799 25.3867 19.0466 25.52 19.1799C25.6533 19.3133 25.72 19.4866 25.72 19.6999V21.9399C25.72 22.1533 25.6533 22.3399 25.52 22.4999C25.3867 22.6599 25.2133 22.7399 25 22.7399C24.7867 22.7399 24.6133 22.6599 24.48 22.4999C24.3467 22.3399 24.28 22.1799 24.28 22.0199V19.6999C24.28 19.4866 24.3467 19.3133 24.48 19.1799C24.6133 19.0466 24.7867 18.9799 25 18.9799ZM18.6 21.5399C18.76 21.4333 18.9333 21.3799 19.12 21.3799C19.3067 21.3799 19.48 21.4333 19.64 21.5399L21 22.9799C21.16 23.0866 21.24 23.2466 21.24 23.4599C21.24 23.6733 21.1733 23.8599 21.04 24.0199C20.9067 24.1799 20.7333 24.2599 20.52 24.2599C20.3067 24.2599 20.12 24.1799 19.96 24.0199L18.6 22.6599C18.44 22.4999 18.36 22.3133 18.36 22.0999C18.36 21.8866 18.44 21.6999 18.6 21.5399ZM16.04 27.9399C16.04 27.7799 16.1067 27.6199 16.24 27.4599C16.3733 27.2999 16.5467 27.2199 16.76 27.2199H19.16C19.32 27.2199 19.48 27.2999 19.64 27.4599C19.8 27.6199 19.88 27.7933 19.88 27.9799C19.88 28.1666 19.8 28.3399 19.64 28.4999C19.48 28.6599 19.32 28.7399 19.16 28.7399H16.76C16.5467 28.7399 16.3733 28.6599 16.24 28.4999C16.1067 28.3399 16.04 28.1533 16.04 27.9399ZM30.28 27.9399C30.28 27.7799 30.3467 27.6199 30.48 27.4599C30.6133 27.2999 30.7867 27.2199 31 27.2199H33.24C33.4533 27.2199 33.64 27.2999 33.8 27.4599C33.96 27.6199 34.04 27.7933 34.04 27.9799C34.04 28.1666 33.96 28.3399 33.8 28.4999C33.64 28.6599 33.4533 28.7399 33.24 28.7399H31C30.7867 28.7399 30.6133 28.6599 30.48 28.4999C30.3467 28.3399 30.28 28.1533 30.28 27.9399ZM31.4 21.6199C31.2933 21.5133 31.16 21.4599 31 21.4599C30.84 21.4599 30.7067 21.5133 30.6 21.6199L24.36 26.9799C24.1467 27.1399 24 27.3399 23.92 27.5799C23.84 27.8199 23.8267 28.0599 23.88 28.2999C23.9333 28.5399 24.0533 28.7533 24.24 28.9399C24.4267 29.1266 24.6533 29.2466 24.92 29.2999C25.1867 29.3533 25.44 29.3399 25.68 29.2599C25.92 29.1799 26.12 29.0333 26.28 28.8199L31.4 22.4199C31.5067 22.2599 31.56 22.1133 31.56 21.9799C31.56 21.8466 31.5067 21.7266 31.4 21.6199ZM13 27.9399C13 25.5933 13.6533 23.4199 14.96 21.4199C16.2667 19.4199 18.0133 17.9399 20.2 16.9799C22.3867 16.0199 24.6533 15.7399 27 16.1399C29.3467 16.5399 31.4 17.5533 33.16 19.1799C34.92 20.8066 36.08 22.7799 36.64 25.0999C37.2 27.4199 37.1067 29.6999 36.36 31.9399C36.04 32.8466 35.44 33.4599 34.56 33.7799C33.68 34.0999 32.8133 34.1266 31.96 33.8599C29.1333 32.9533 26.8133 32.4999 25 32.4999C23.1867 32.4999 20.8667 32.9533 18.04 33.8599C17.1867 34.1266 16.32 34.0999 15.44 33.7799C14.56 33.4599 13.96 32.8466 13.64 31.9399C13.2133 30.6599 13 29.3533 13 28.0199V27.9399ZM25 17.4599C23.2933 17.4599 21.68 17.8599 20.16 18.6599C18.64 19.4599 17.3867 20.5533 16.4 21.9399C15.4133 23.3266 14.8133 24.8599 14.6 26.5399C14.3867 28.2199 14.5467 29.8599 15.08 31.4599C15.24 31.8866 15.56 32.1933 16.04 32.3799C16.52 32.5666 17.0533 32.5799 17.64 32.4199C20.5733 31.4599 23.0267 30.9799 25 30.9799C26.9733 30.9799 29.4267 31.4599 32.36 32.4199C32.9467 32.5799 33.48 32.5666 33.96 32.3799C34.44 32.1933 34.76 31.8866 34.92 31.4599C35.4533 29.8599 35.6133 28.2199 35.4 26.5399C35.1867 24.8599 34.5867 23.3266 33.6 21.9399C32.6133 20.5533 31.36 19.4599 29.84 18.6599C28.32 17.8599 26.7067 17.4599 25 17.4599Z" fill="#377DFF"/>
</svg>
