<svg width="50" height="50" viewBox="0 0 50 50" fill="none" xmlns="http://www.w3.org/2000/svg">
<path d="M17.48 16.74C17.48 16.5266 17.56 16.34 17.72 16.18C17.88 16.02 18.0667 15.94 18.28 15.94H25.72C25.9333 15.94 26.12 16.02 26.28 16.18C26.44 16.34 26.52 16.5266 26.52 16.74V24.26C26.52 24.4733 26.44 24.6466 26.28 24.78C26.12 24.9133 25.9333 24.98 25.72 24.98H18.28C18.0667 24.98 17.88 24.9133 17.72 24.78C17.56 24.6466 17.48 24.4733 17.48 24.26V16.74ZM14.52 15.94C14.52 15.14 14.8133 14.4466 15.4 13.86C15.9867 13.2733 16.68 12.98 17.48 12.98H26.52C27.32 12.98 28.0133 13.2733 28.6 13.86C29.1867 14.4466 29.48 15.1666 29.48 16.02V27.94C30.3333 27.94 31.0533 28.2333 31.64 28.82C32.2267 29.4066 32.52 30.1266 32.52 30.98V31.7C32.52 31.9133 32.5867 32.1 32.72 32.26C32.8533 32.42 33.0267 32.5 33.24 32.5C33.4533 32.5 33.64 32.42 33.8 32.26C33.96 32.1 34.04 31.9133 34.04 31.7V24.98H33.24C33.0267 24.98 32.8533 24.9133 32.72 24.78C32.5867 24.6466 32.52 24.4733 32.52 24.26V19.54C32.52 19.3266 32.5867 19.1533 32.72 19.02C32.8533 18.8866 33.0267 18.82 33.24 18.82H35.48C35.48 17.9666 35.3733 17.3533 35.16 16.98C35.0533 16.66 34.8533 16.4066 34.56 16.22C34.2667 16.0333 33.8267 15.94 33.24 15.94C33.0267 15.94 32.8533 15.8733 32.72 15.74C32.5867 15.6066 32.52 15.4333 32.52 15.22C32.52 15.0066 32.5867 14.8333 32.72 14.7C32.8533 14.5666 33.0267 14.5 33.24 14.5C34.0933 14.5 34.7867 14.66 35.32 14.98C35.8533 15.3 36.2533 15.7533 36.52 16.34C36.7333 16.7666 36.8667 17.3 36.92 17.94C36.9733 18.3133 37 18.82 37 19.46V24.26C37 24.42 36.9333 24.58 36.8 24.74C36.6667 24.9 36.4933 24.98 36.28 24.98H35.48V31.7C35.48 32.34 35.2667 32.8733 34.84 33.3C34.4133 33.7266 33.88 33.9533 33.24 33.98C32.6 34.0066 32.0667 33.7933 31.64 33.34C31.2133 32.8866 31 32.34 31 31.7V30.98C31 30.5533 30.8533 30.1933 30.56 29.9C30.2667 29.6066 29.9067 29.46 29.48 29.46V35.46H30.28C30.4933 35.46 30.6667 35.54 30.8 35.7C30.9333 35.86 31 36.0466 31 36.26C31 36.4733 30.9333 36.6466 30.8 36.78C30.6667 36.9133 30.4933 36.98 30.28 36.98H13.72C13.5067 36.98 13.3333 36.9133 13.2 36.78C13.0667 36.6466 13 36.4733 13 36.26C13 36.0466 13.0667 35.86 13.2 35.7C13.3333 35.54 13.5067 35.46 13.72 35.46H14.52V15.94ZM28.04 15.94C28.04 15.5666 27.8933 15.2333 27.6 14.94C27.3067 14.6466 26.9467 14.5 26.52 14.5H17.48C17.0533 14.5 16.7067 14.6466 16.44 14.94C16.1733 15.2333 16.04 15.5666 16.04 15.94V35.46H28.04V15.94Z" fill="#377DFF"/>
</svg>
