<svg width="50" height="50" viewBox="0 0 50 50" fill="none" xmlns="http://www.w3.org/2000/svg">
<path d="M14.52 24.98C14.52 26.9 14.9867 28.66 15.92 30.26C16.8533 31.86 18.12 33.1266 19.72 34.06C21.32 34.9933 23.08 35.46 25 35.46C26.92 35.46 28.68 34.9933 30.28 34.06C31.88 33.1266 33.1467 31.86 34.08 30.26C35.0133 28.66 35.48 26.9 35.48 24.98C35.48 23.06 35.0133 21.3 34.08 19.7C33.1467 18.1 31.88 16.8333 30.28 15.9C28.68 14.9666 26.92 14.5 25 14.5C23.08 14.5 21.32 14.9666 19.72 15.9C18.12 16.8333 16.8533 18.1 15.92 19.7C14.9867 21.3 14.52 23.06 14.52 24.98ZM37 24.98C37 27.1666 36.4667 29.18 35.4 31.02C34.3333 32.86 32.88 34.3133 31.04 35.38C29.2 36.4466 27.1867 36.98 25 36.98C22.8133 36.98 20.8 36.4466 18.96 35.38C17.12 34.3133 15.6667 32.86 14.6 31.02C13.5333 29.18 13 27.1666 13 24.98C13 22.7933 13.5333 20.78 14.6 18.94C15.6667 17.1 17.12 15.6466 18.96 14.58C20.8 13.5133 22.8133 12.98 25 12.98C27.1867 12.98 29.2 13.5133 31.04 14.58C32.88 15.6466 34.3333 17.1 35.4 18.94C36.4667 20.78 37 22.7933 37 24.98ZM21.24 18.98H25.72C26.8933 18.98 27.8133 19.34 28.48 20.06C29.1467 20.78 29.48 21.7133 29.48 22.86C29.48 24.0066 29.1333 24.94 28.44 25.66C27.7467 26.38 26.8133 26.74 25.64 26.74H23.16V30.98H21.24V18.98ZM25.4 25.06C26.0933 25.06 26.6267 24.8733 27 24.5C27.3733 24.1266 27.56 23.58 27.56 22.86C27.56 22.14 27.3733 21.5933 27 21.22C26.6267 20.8466 26.0933 20.66 25.4 20.66H23.16V25.06H25.4Z" fill="#377DFF"/>
</svg>
