<svg width="50" height="50" viewBox="0 0 50 50" fill="none" xmlns="http://www.w3.org/2000/svg">
<path d="M29.48 15.936C29.48 15.5625 29.6267 15.229 29.92 14.9355C30.2133 14.6421 30.5733 14.4953 31 14.4953H34.04C34.4133 14.4953 34.7467 14.6421 35.04 14.9355C35.3333 15.229 35.48 15.5625 35.48 15.936V33.9439H36.28C36.4933 33.9439 36.6667 34.024 36.8 34.184C36.9333 34.3441 37 34.5309 37 34.7443C37 34.9577 36.9333 35.1311 36.8 35.2645C36.6667 35.3979 36.4933 35.4646 36.28 35.4646H13.72C13.5067 35.4646 13.3333 35.3979 13.2 35.2645C13.0667 35.1311 13 34.9577 13 34.7443C13 34.5309 13.0667 34.3574 13.2 34.2241C13.3333 34.0907 13.5067 33.9973 13.72 33.9439H14.52V29.4619C14.52 29.0351 14.6667 28.6749 14.96 28.3815C15.2533 28.088 15.5867 27.9413 15.96 27.9413H19C19.4267 27.9946 19.7867 28.1547 20.08 28.4215C20.3733 28.6883 20.52 29.0351 20.52 29.4619V33.9439H22.04V23.4593C21.9867 23.0324 22.1067 22.6723 22.4 22.3788C22.6933 22.0853 23.0533 21.9386 23.48 21.9386H26.52C26.9467 21.9386 27.3067 22.0853 27.6 22.3788C27.8933 22.6723 28.04 23.0324 28.04 23.4593V33.9439H29.48V15.936ZM31 33.9439H34.04V15.936H31V33.9439ZM26.52 33.9439V23.4593H23.48V33.9439H26.52ZM19 33.9439V29.4619H16.04V33.9439H19Z" fill="#377DFF"/>
</svg>
