<svg width="50" height="50" viewBox="0 0 50 50" fill="none" xmlns="http://www.w3.org/2000/svg">
<path d="M19 20.258V21.6186H20.52V20.258H19ZM29.48 20.258V21.6186H31V20.258H29.48ZM19 22.9792V24.3398H20.52V22.9792H19ZM29.48 22.9792V24.3398H31V22.9792H29.48ZM19 25.6204V26.981H20.52V25.6204H19ZM29.48 25.6204V26.981H31V25.6204H29.48ZM19 28.3416V29.7022H20.52V28.3416H19ZM29.48 28.3416V29.7022H31V28.3416H29.48ZM15.24 17.4568C14.6 17.4568 14.0667 17.6835 13.64 18.1371C13.2133 18.5906 13 19.1108 13 19.6978V21.9387C13 22.1522 13.0667 22.3389 13.2 22.499C13.3333 22.6591 13.5067 22.7391 13.72 22.7391C14.36 22.7391 14.9067 22.9525 15.36 23.3794C15.8133 23.8062 16.0267 24.3398 16 24.9801C15.9733 25.6204 15.7467 26.1539 15.32 26.5808C14.8933 27.0077 14.36 27.2211 13.72 27.2211C13.5067 27.2211 13.3333 27.3011 13.2 27.4612C13.0667 27.6213 13 27.808 13 28.0214V30.2624C13 30.8494 13.2133 31.3696 13.64 31.8231C14.0667 32.2767 14.6 32.5034 15.24 32.5034H34.76C35.4 32.5034 35.9333 32.2767 36.36 31.8231C36.7867 31.3696 37 30.8494 37 30.2624V27.9414C37 27.7813 36.9333 27.6213 36.8 27.4612C36.6667 27.3011 36.4933 27.2211 36.28 27.2211C35.64 27.2211 35.1067 27.0077 34.68 26.5808C34.2533 26.1539 34.04 25.6204 34.04 24.9801C34.04 24.3398 34.2533 23.8062 34.68 23.3794C35.1067 22.9525 35.64 22.7391 36.28 22.7391C36.4933 22.7391 36.6667 22.6591 36.8 22.499C36.9333 22.3389 37 22.1788 37 22.0188V19.6978C37 19.1108 36.7867 18.5906 36.36 18.1371C35.9333 17.6835 35.4 17.4568 34.76 17.4568H15.24ZM14.52 19.6978C14.52 19.4843 14.5867 19.3109 14.72 19.1775C14.8533 19.0441 15.0267 18.9774 15.24 18.9774H34.76C34.9733 18.9774 35.1467 19.0441 35.28 19.1775C35.4133 19.3109 35.48 19.4843 35.48 19.6978V21.2985C34.6267 21.4585 33.92 21.8854 33.36 22.579C32.8 23.2727 32.52 24.073 32.52 24.9801C32.52 25.8872 32.8 26.6875 33.36 27.3812C33.92 28.0748 34.6267 28.5016 35.48 28.6617V30.2624C35.48 30.4759 35.4133 30.6493 35.28 30.7827C35.1467 30.916 34.9733 30.9827 34.76 30.9827H15.24C15.0267 30.9827 14.8533 30.916 14.72 30.7827C14.5867 30.6493 14.52 30.4759 14.52 30.2624V28.6617C15.3733 28.5016 16.08 28.0748 16.64 27.3812C17.2 26.6875 17.48 25.8872 17.48 24.9801C17.48 24.073 17.2 23.2727 16.64 22.579C16.08 21.8854 15.3733 21.4585 14.52 21.2985V19.6978Z" fill="#377DFF"/>
</svg>
