<svg width="50" height="50" viewBox="0 0 50 50" fill="none" xmlns="http://www.w3.org/2000/svg">
<path d="M22.68 14.74C22.8933 14.2066 23.2 13.78 23.6 13.46C24 13.14 24.4667 12.98 25 12.98C25.5333 12.98 26 13.14 26.4 13.46C26.8 13.78 27.1067 14.2066 27.32 14.74C27.8 15.5933 28.04 16.5 28.04 17.46V22.98L35.72 26.9C36.1467 27.06 36.4667 27.3266 36.68 27.7C36.8933 28.0733 37 28.4733 37 28.9V30.98C37 31.1933 36.9067 31.38 36.72 31.54C36.5333 31.7 36.3333 31.7533 36.12 31.7L27.88 30.34L27.32 33.7L29.32 35.7C29.5333 35.9133 29.5733 36.18 29.44 36.5C29.3067 36.82 29.08 36.98 28.76 36.98H21.24C20.92 36.98 20.6933 36.82 20.56 36.5C20.4267 36.18 20.4667 35.9133 20.68 35.7L22.68 33.7L22.12 30.34L13.88 31.7C13.6667 31.7533 13.4667 31.7 13.28 31.54C13.0933 31.38 13 31.1933 13 30.98V28.9C13 28.4733 13.1067 28.0733 13.32 27.7C13.5333 27.3266 13.8533 27.06 14.28 26.9L22.04 22.98V17.46C21.9867 16.5 22.2 15.5933 22.68 14.74ZM23.96 15.38C23.64 16.02 23.48 16.7133 23.48 17.46V23.46C23.48 23.78 23.3467 24.02 23.08 24.18L14.92 28.26C14.6533 28.3666 14.52 28.58 14.52 28.9V30.1L22.6 28.74C22.8133 28.6866 23 28.7266 23.16 28.86C23.32 28.9933 23.4267 29.1666 23.48 29.38L24.2 33.86C24.2533 34.1266 24.2 34.34 24.04 34.5L23.08 35.46H26.92L25.96 34.5C25.8 34.34 25.7467 34.1266 25.8 33.86L26.52 29.38C26.5733 29.1666 26.68 28.9933 26.84 28.86C27 28.7266 27.1867 28.6866 27.4 28.74L35.48 30.1V28.9C35.48 28.58 35.3467 28.3666 35.08 28.26L26.92 24.18C26.6533 24.02 26.52 23.78 26.52 23.46V17.46C26.52 16.7133 26.36 16.0333 26.04 15.42C25.72 14.8066 25.3733 14.5 25 14.5C24.6267 14.5 24.28 14.7933 23.96 15.38Z" fill="#377DFF"/>
</svg>
