<svg width="24" height="24" viewBox="0 0 24 24" fill="none" xmlns="http://www.w3.org/2000/svg">
<path d="M3.75001 12C3.74979 10.5518 4.13082 9.12893 4.85482 7.87459C5.57882 6.62025 6.62026 5.57861 7.87445 4.85437C9.12865 4.13013 10.5514 3.74881 11.9997 3.74875C13.448 3.7487 14.8708 4.1299 16.125 4.85405C16.2972 4.95193 16.5011 4.97775 16.6922 4.92586C16.8833 4.87397 17.0462 4.74858 17.1452 4.57707C17.2442 4.40555 17.2714 4.20183 17.2208 4.01036C17.1702 3.81888 17.0459 3.65521 16.875 3.55505C15.0163 2.48192 12.8554 2.05208 10.7275 2.33219C8.59964 2.61229 6.62362 3.5867 5.10594 5.10428C3.58826 6.62186 2.61373 8.59782 2.33349 10.7257C2.05324 12.8536 2.48294 15.0145 3.55595 16.8733C4.62896 18.732 6.28531 20.1848 8.26813 21.0063C10.2509 21.8278 12.4494 21.9721 14.5226 21.4168C16.5958 20.8615 18.4278 19.6377 19.7345 17.9351C21.0413 16.2325 21.7497 14.1463 21.75 12C21.75 11.8011 21.671 11.6104 21.5303 11.4697C21.3897 11.3291 21.1989 11.25 21 11.25C20.8011 11.25 20.6103 11.3291 20.4697 11.4697C20.329 11.6104 20.25 11.8011 20.25 12C20.25 14.1881 19.3808 16.2865 17.8336 17.8337C16.2865 19.3809 14.188 20.25 12 20.25C9.81198 20.25 7.71356 19.3809 6.16638 17.8337C4.61921 16.2865 3.75001 14.1881 3.75001 12Z" fill="#377DFF"/>
<path d="M23.031 5.03105C23.1007 4.96131 23.1561 4.87853 23.1938 4.78742C23.2315 4.69631 23.251 4.59866 23.251 4.50005C23.251 4.40143 23.2315 4.30378 23.1938 4.21267C23.1561 4.12156 23.1007 4.03878 23.031 3.96905C22.9613 3.89931 22.8785 3.844 22.7874 3.80626C22.6963 3.76852 22.5986 3.7491 22.5 3.7491C22.4014 3.7491 22.3037 3.76852 22.2126 3.80626C22.1215 3.844 22.0387 3.89931 21.969 3.96905L12 13.9395L8.03101 9.96905C7.96128 9.89931 7.8785 9.844 7.78739 9.80626C7.69628 9.76852 7.59863 9.7491 7.50001 9.7491C7.4014 9.7491 7.30375 9.76852 7.21264 9.80626C7.12153 9.844 7.03875 9.89931 6.96901 9.96905C6.89928 10.0388 6.84397 10.1216 6.80623 10.2127C6.76849 10.3038 6.74907 10.4014 6.74907 10.5C6.74907 10.5987 6.76849 10.6963 6.80623 10.7874C6.84397 10.8785 6.89928 10.9613 6.96901 11.031L11.469 15.531C11.5387 15.6009 11.6214 15.6563 11.7126 15.6941C11.8037 15.7319 11.9014 15.7514 12 15.7514C12.0987 15.7514 12.1963 15.7319 12.2875 15.6941C12.3786 15.6563 12.4613 15.6009 12.531 15.531L23.031 5.03105Z" fill="#377DFF"/>
</svg>
