<svg width="50" height="51" viewBox="0 0 50 51" fill="none" xmlns="http://www.w3.org/2000/svg">
<rect y="0.0899963" width="50" height="50" rx="25" fill="#377DFF" fillOpacity="0.1"/>
<g clipPath="url(#clip0_3203_45292)">
<path d="M20.5 13.07H32.5C33.2956 13.07 34.0587 13.3861 34.6213 13.9487C35.1839 14.5113 35.5 15.2743 35.5 16.07V31.07C35.5 31.8656 35.1839 32.6287 34.6213 33.1913C34.0587 33.7539 33.2956 34.07 32.5 34.07C32.5 34.8656 32.1839 35.6287 31.6213 36.1913C31.0587 36.7539 30.2956 37.07 29.5 37.07H17.5C16.7044 37.07 15.9413 36.7539 15.3787 36.1913C14.8161 35.6287 14.5 34.8656 14.5 34.07H16C16 34.4678 16.158 34.8493 16.4393 35.1307C16.7206 35.412 17.1022 35.57 17.5 35.57H29.5C29.8978 35.57 30.2794 35.412 30.5607 35.1307C30.842 34.8493 31 34.4678 31 34.07V19.07C31 18.6722 30.842 18.2906 30.5607 18.0093C30.2794 17.728 29.8978 17.57 29.5 17.57H17.5C17.1022 17.57 16.7206 17.728 16.4393 18.0093C16.158 18.2906 16 18.6722 16 19.07H14.5C14.5 18.2743 14.8161 17.5113 15.3787 16.9487C15.9413 16.3861 16.7044 16.07 17.5 16.07H29.5C30.2956 16.07 31.0587 16.3861 31.6213 16.9487C32.1839 17.5113 32.5 18.2743 32.5 19.07V32.57C32.8978 32.57 33.2794 32.412 33.5607 32.1307C33.842 31.8493 34 31.4678 34 31.07V16.07C34 15.6722 33.842 15.2906 33.5607 15.0093C33.2794 14.728 32.8978 14.57 32.5 14.57H20.5C20.1022 14.57 19.7206 14.728 19.4393 15.0093C19.158 15.2906 19 15.6722 19 16.07H17.5C17.5 15.2743 17.8161 14.5113 18.3787 13.9487C18.9413 13.3861 19.7044 13.07 20.5 13.07Z" fill="#377DFF"/>
<path d="M14.5 22.07V21.32C14.5 21.1211 14.579 20.9303 14.7197 20.7897C14.8603 20.649 15.0511 20.57 15.25 20.57C15.4489 20.57 15.6397 20.649 15.7803 20.7897C15.921 20.9303 16 21.1211 16 21.32V22.07H16.75C16.9489 22.07 17.1397 22.149 17.2803 22.2897C17.421 22.4303 17.5 22.6211 17.5 22.82C17.5 23.0189 17.421 23.2097 17.2803 23.3503C17.1397 23.491 16.9489 23.57 16.75 23.57H13.75C13.5511 23.57 13.3603 23.491 13.2197 23.3503C13.079 23.2097 13 23.0189 13 22.82C13 22.6211 13.079 22.4303 13.2197 22.2897C13.3603 22.149 13.5511 22.07 13.75 22.07H14.5ZM14.5 26.57V25.82C14.5 25.6211 14.579 25.4303 14.7197 25.2897C14.8603 25.149 15.0511 25.07 15.25 25.07C15.4489 25.07 15.6397 25.149 15.7803 25.2897C15.921 25.4303 16 25.6211 16 25.82V26.57H16.75C16.9489 26.57 17.1397 26.649 17.2803 26.7897C17.421 26.9303 17.5 27.1211 17.5 27.32C17.5 27.5189 17.421 27.7097 17.2803 27.8503C17.1397 27.991 16.9489 28.07 16.75 28.07H13.75C13.5511 28.07 13.3603 27.991 13.2197 27.8503C13.079 27.7097 13 27.5189 13 27.32C13 27.1211 13.079 26.9303 13.2197 26.7897C13.3603 26.649 13.5511 26.57 13.75 26.57H14.5ZM14.5 30.32V31.07H13.75C13.5511 31.07 13.3603 31.149 13.2197 31.2897C13.079 31.4303 13 31.6211 13 31.82C13 32.0189 13.079 32.2097 13.2197 32.3503C13.3603 32.491 13.5511 32.57 13.75 32.57H16.75C16.9489 32.57 17.1397 32.491 17.2803 32.3503C17.421 32.2097 17.5 32.0189 17.5 31.82C17.5 31.6211 17.421 31.4303 17.2803 31.2897C17.1397 31.149 16.9489 31.07 16.75 31.07H16V30.32C16 30.1211 15.921 29.9303 15.7803 29.7897C15.6397 29.649 15.4489 29.57 15.25 29.57C15.0511 29.57 14.8603 29.649 14.7197 29.7897C14.579 29.9303 14.5 30.1211 14.5 30.32Z" fill="#377DFF"/>
</g>
<defs>
<clipPath id="clip0_3203_45292">
<rect width="24" height="24" fill="white" transform="translate(13 13.07)"/>
</clipPath>
</defs>
</svg>
