<svg width="14" height="19" viewBox="0 0 14 19" fill="none" xmlns="http://www.w3.org/2000/svg">
<path d="M4.1875 8.10999C4.03832 8.10999 3.89524 8.16925 3.78975 8.27474C3.68426 8.38023 3.625 8.5233 3.625 8.67249C3.625 8.82167 3.68426 8.96474 3.78975 9.07023C3.89524 9.17572 4.03832 9.23499 4.1875 9.23499H9.8125C9.96168 9.23499 10.1048 9.17572 10.2102 9.07023C10.3157 8.96474 10.375 8.82167 10.375 8.67249C10.375 8.5233 10.3157 8.38023 10.2102 8.27474C10.1048 8.16925 9.96168 8.10999 9.8125 8.10999H4.1875ZM3.625 10.9225C3.625 10.7733 3.68426 10.6302 3.78975 10.5247C3.89524 10.4192 4.03832 10.36 4.1875 10.36H9.8125C9.96168 10.36 10.1048 10.4192 10.2102 10.5247C10.3157 10.6302 10.375 10.7733 10.375 10.9225C10.375 11.0717 10.3157 11.2147 10.2102 11.3202C10.1048 11.4257 9.96168 11.485 9.8125 11.485H4.1875C4.03832 11.485 3.89524 11.4257 3.78975 11.3202C3.68426 11.2147 3.625 11.0717 3.625 10.9225ZM3.625 13.1725C3.625 13.0233 3.68426 12.8802 3.78975 12.7747C3.89524 12.6692 4.03832 12.61 4.1875 12.61H6.4375C6.58668 12.61 6.72976 12.6692 6.83525 12.7747C6.94074 12.8802 7 13.0233 7 13.1725C7 13.3217 6.94074 13.4647 6.83525 13.5702C6.72976 13.6757 6.58668 13.735 6.4375 13.735H4.1875C4.03832 13.735 3.89524 13.6757 3.78975 13.5702C3.68426 13.4647 3.625 13.3217 3.625 13.1725Z" fill="#3D8BFD"/>
<path d="M8.6875 0.234985H2.5C1.90326 0.234985 1.33097 0.472038 0.90901 0.893995C0.487053 1.31595 0.25 1.88825 0.25 2.48499V15.985C0.25 16.5817 0.487053 17.154 0.90901 17.576C1.33097 17.9979 1.90326 18.235 2.5 18.235H11.5C12.0967 18.235 12.669 17.9979 13.091 17.576C13.5129 17.154 13.75 16.5817 13.75 15.985V5.29749L8.6875 0.234985ZM8.6875 1.35999V3.60999C8.6875 4.05754 8.86529 4.48676 9.18176 4.80323C9.49822 5.1197 9.92745 5.29749 10.375 5.29749H12.625V15.985C12.625 16.2834 12.5065 16.5695 12.2955 16.7805C12.0845 16.9915 11.7984 17.11 11.5 17.11H2.5C2.20163 17.11 1.91548 16.9915 1.7045 16.7805C1.49353 16.5695 1.375 16.2834 1.375 15.985V2.48499C1.375 2.18662 1.49353 1.90047 1.7045 1.68949C1.91548 1.47851 2.20163 1.35999 2.5 1.35999H8.6875Z" fill="#3D8BFD"/>
</svg>
