<svg width="20" height="20" viewBox="0 0 20 20" fill="none" xmlns="http://www.w3.org/2000/svg">
<path d="M10 1.23499C5.03725 1.23499 1 5.27224 1 10.235C1 15.1977 5.03725 19.235 10 19.235H19V10.235C19 5.27224 14.9628 1.23499 10 1.23499ZM18.25 18.485H10C5.45125 18.485 1.75 14.7837 1.75 10.235C1.75 5.68624 5.45125 1.98499 10 1.98499C14.5487 1.98499 18.25 5.68624 18.25 10.235V18.485ZM10.75 10.235C10.75 10.4339 10.671 10.6247 10.5303 10.7653C10.3897 10.906 10.1989 10.985 10 10.985C9.80109 10.985 9.61032 10.906 9.46967 10.7653C9.32902 10.6247 9.25 10.4339 9.25 10.235C9.25 10.0361 9.32902 9.84531 9.46967 9.70466C9.61032 9.564 9.80109 9.48499 10 9.48499C10.1989 9.48499 10.3897 9.564 10.5303 9.70466C10.671 9.84531 10.75 10.0361 10.75 10.235ZM14.5 10.235C14.5 10.4339 14.421 10.6247 14.2803 10.7653C14.1397 10.906 13.9489 10.985 13.75 10.985C13.5511 10.985 13.3603 10.906 13.2197 10.7653C13.079 10.6247 13 10.4339 13 10.235C13 10.0361 13.079 9.84531 13.2197 9.70466C13.3603 9.564 13.5511 9.48499 13.75 9.48499C13.9489 9.48499 14.1397 9.564 14.2803 9.70466C14.421 9.84531 14.5 10.0361 14.5 10.235ZM7 10.235C7 10.4339 6.92098 10.6247 6.78033 10.7653C6.63968 10.906 6.44891 10.985 6.25 10.985C6.05109 10.985 5.86032 10.906 5.71967 10.7653C5.57902 10.6247 5.5 10.4339 5.5 10.235C5.5 10.0361 5.57902 9.84531 5.71967 9.70466C5.86032 9.564 6.05109 9.48499 6.25 9.48499C6.44891 9.48499 6.63968 9.564 6.78033 9.70466C6.92098 9.84531 7 10.0361 7 10.235Z" fill="#3D8BFD" stroke="#3D8BFD" stroke-width="0.5"/>
</svg>
