<svg width="50" height="51" viewBox="0 0 50 51" fill="none" xmlns="http://www.w3.org/2000/svg">
<rect y="0.479996" width="50" height="50" rx="25" fill="#ED4C78" fillOpacity="0.1"/>
<g clipPath="url(#clip0_3203_45308)">
<path d="M20.5 13.46H32.5C33.2956 13.46 34.0587 13.7761 34.6213 14.3387C35.1839 14.9013 35.5 15.6643 35.5 16.46V31.46C35.5 32.2556 35.1839 33.0187 34.6213 33.5813C34.0587 34.1439 33.2956 34.46 32.5 34.46C32.5 35.2556 32.1839 36.0187 31.6213 36.5813C31.0587 37.1439 30.2956 37.46 29.5 37.46H17.5C16.7044 37.46 15.9413 37.1439 15.3787 36.5813C14.8161 36.0187 14.5 35.2556 14.5 34.46H16C16 34.8578 16.158 35.2393 16.4393 35.5207C16.7206 35.802 17.1022 35.96 17.5 35.96H29.5C29.8978 35.96 30.2794 35.802 30.5607 35.5207C30.842 35.2393 31 34.8578 31 34.46V19.46C31 19.0622 30.842 18.6806 30.5607 18.3993C30.2794 18.118 29.8978 17.96 29.5 17.96H17.5C17.1022 17.96 16.7206 18.118 16.4393 18.3993C16.158 18.6806 16 19.0622 16 19.46H14.5C14.5 18.6643 14.8161 17.9013 15.3787 17.3387C15.9413 16.7761 16.7044 16.46 17.5 16.46H29.5C30.2956 16.46 31.0587 16.7761 31.6213 17.3387C32.1839 17.9013 32.5 18.6643 32.5 19.46V32.96C32.8978 32.96 33.2794 32.802 33.5607 32.5207C33.842 32.2393 34 31.8578 34 31.46V16.46C34 16.0622 33.842 15.6806 33.5607 15.3993C33.2794 15.118 32.8978 14.96 32.5 14.96H20.5C20.1022 14.96 19.7206 15.118 19.4393 15.3993C19.158 15.6806 19 16.0622 19 16.46H17.5C17.5 15.6643 17.8161 14.9013 18.3787 14.3387C18.9413 13.7761 19.7044 13.46 20.5 13.46Z" fill="#ED4C78"/>
<path d="M14.5 22.46V21.71C14.5 21.5111 14.579 21.3203 14.7197 21.1797C14.8603 21.039 15.0511 20.96 15.25 20.96C15.4489 20.96 15.6397 21.039 15.7803 21.1797C15.921 21.3203 16 21.5111 16 21.71V22.46H16.75C16.9489 22.46 17.1397 22.539 17.2803 22.6797C17.421 22.8203 17.5 23.0111 17.5 23.21C17.5 23.4089 17.421 23.5997 17.2803 23.7403C17.1397 23.881 16.9489 23.96 16.75 23.96H13.75C13.5511 23.96 13.3603 23.881 13.2197 23.7403C13.079 23.5997 13 23.4089 13 23.21C13 23.0111 13.079 22.8203 13.2197 22.6797C13.3603 22.539 13.5511 22.46 13.75 22.46H14.5ZM14.5 26.96V26.21C14.5 26.0111 14.579 25.8203 14.7197 25.6797C14.8603 25.539 15.0511 25.46 15.25 25.46C15.4489 25.46 15.6397 25.539 15.7803 25.6797C15.921 25.8203 16 26.0111 16 26.21V26.96H16.75C16.9489 26.96 17.1397 27.039 17.2803 27.1797C17.421 27.3203 17.5 27.5111 17.5 27.71C17.5 27.9089 17.421 28.0997 17.2803 28.2403C17.1397 28.381 16.9489 28.46 16.75 28.46H13.75C13.5511 28.46 13.3603 28.381 13.2197 28.2403C13.079 28.0997 13 27.9089 13 27.71C13 27.5111 13.079 27.3203 13.2197 27.1797C13.3603 27.039 13.5511 26.96 13.75 26.96H14.5ZM14.5 30.71V31.46H13.75C13.5511 31.46 13.3603 31.539 13.2197 31.6797C13.079 31.8203 13 32.0111 13 32.21C13 32.4089 13.079 32.5997 13.2197 32.7403C13.3603 32.881 13.5511 32.96 13.75 32.96H16.75C16.9489 32.96 17.1397 32.881 17.2803 32.7403C17.421 32.5997 17.5 32.4089 17.5 32.21C17.5 32.0111 17.421 31.8203 17.2803 31.6797C17.1397 31.539 16.9489 31.46 16.75 31.46H16V30.71C16 30.5111 15.921 30.3203 15.7803 30.1797C15.6397 30.039 15.4489 29.96 15.25 29.96C15.0511 29.96 14.8603 30.039 14.7197 30.1797C14.579 30.3203 14.5 30.5111 14.5 30.71Z" fill="#ED4C78"/>
</g>
<defs>
<clipPath id="clip0_3203_45308">
<rect width="24" height="24" fill="white" transform="translate(13 13.46)"/>
</clipPath>
</defs>
</svg>
