<?xml version="1.0" encoding="utf-8"?>
<!-- Generator: Adobe Illustrator 26.0.3, SVG Export Plug-In . SVG Version: 6.00 Build 0)  -->
<svg version="1.1" id="Layer_1" xmlns="http://www.w3.org/2000/svg" xmlns:xlink="http://www.w3.org/1999/xlink" x="0px" y="0px"
	 viewBox="0 0 201 67" style="enable-background:new 0 0 201 67;" xml:space="preserve">
<style type="text/css">
	.st0{fill:#7B878D;}
</style>
<path class="st0" d="M73.7,67c-1.8,0-3.4-0.7-4.7-2c-1.3-1.3-2-2.9-2-4.7V20.1c0-1.8,0.7-3.4,2-4.7s2.9-2,4.7-2h13.4V6.7
	c0-1.8,0.7-3.4,2-4.7c1.3-1.3,2.9-2,4.7-2h13.4c1.8,0,3.4,0.7,4.7,2c1.3,1.3,2,2.9,2,4.7v6.7h13.4c1.8,0,3.4,0.7,4.7,2s2,2.9,2,4.7
	v40.2c0,1.8-0.7,3.4-2,4.7c-1.3,1.3-2.9,2-4.7,2H73.7z M93.8,13.4h13.4V6.7H93.8V13.4z M97.2,43.5v10h6.7v-10h10.1v-6.7h-10.1v-10
	h-6.7v10H87.1v6.7H97.2z"/>
</svg>
