<?xml version="1.0" encoding="utf-8"?>
<!-- Generator: Adobe Illustrator 26.0.3, SVG Export Plug-In . SVG Version: 6.00 Build 0)  -->
<svg version="1.1" id="Layer_1" xmlns="http://www.w3.org/2000/svg" xmlns:xlink="http://www.w3.org/1999/xlink" x="0px" y="0px"
	 viewBox="0 0 201 67" style="enable-background:new 0 0 201 67;" xml:space="preserve">
<style type="text/css">
	.st0{display:none;clipPath:url(#SVGID_00000145739263120993603710000002264778244750779829_);}
	.st1{display:inline;fill:#7B878D;}
	.st2{display:inline;fill:#BDC5D1;}
	.st3{display:inline;fill:#E7EAF3;}
	.st4{fill:#7B878D;}
</style>
<g>
	<defs>
		<rect id="SVGID_1_" width="200.4" height="66.5"/>
	</defs>
	<clipPath id="SVGID_00000140695199308283960610000013804037342482037148_">
		<use xlink:href="#SVGID_1_"  style="overflow:visible;"/>
	</clipPath>
	<g style="display:none;clipPath:url(#SVGID_00000140695199308283960610000013804037342482037148_);">
		<path class="st1" d="M100.2,66.5l13.3-40.9H86.9L100.2,66.5z"/>
		<path class="st2" d="M100.2,66.5L86.9,25.6H68.3L100.2,66.5z"/>
		<path class="st3" d="M68.3,25.6l-4,12.4c-0.4,1.1,0.1,2.3,1,3.1l34.9,25.4L68.3,25.6z"/>
		<path class="st1" d="M68.3,25.6h18.6l-8-24.7c-0.4-1.3-2.2-1.3-2.6,0L68.3,25.6z"/>
		<path class="st2" d="M100.2,66.5l13.3-40.9h18.6L100.2,66.5z"/>
		<path class="st3" d="M132.1,25.6l4,12.4c0.4,1.1-0.1,2.3-1,3.1l-34.9,25.4L132.1,25.6z"/>
		<path class="st1" d="M132.1,25.6h-18.6l8-24.7c0.4-1.3,2.2-1.3,2.6,0L132.1,25.6z"/>
	</g>
</g>
<path class="st4" d="M80.7,66.5c-2.8,0-5.1-1-7-2.9c-1.9-1.9-2.9-4.3-2.9-7v-9.9h9.9V0.5l5,5l5-5l5,5l5-5l5,5l5-5l5,5l5-5l5,5l5-5
	v56.2c0,2.8-1,5.1-2.9,7c-1.9,1.9-4.3,2.9-7,2.9H80.7z M120.3,59.9c0.9,0,1.7-0.3,2.4-1c0.6-0.6,0.9-1.4,0.9-2.4V10.4H87.3v36.3H117
	v9.9c0,0.9,0.3,1.7,1,2.4C118.6,59.6,119.4,59.9,120.3,59.9z M90.6,23.6V17h19.8v6.6H90.6z M90.6,33.5v-6.6h19.8v6.6H90.6z
	 M117,23.6c-0.9,0-1.7-0.3-2.4-0.9c-0.6-0.6-0.9-1.4-0.9-2.4c0-0.9,0.3-1.7,0.9-2.4c0.6-0.6,1.4-1,2.4-1c0.9,0,1.7,0.3,2.4,1
	c0.6,0.6,1,1.4,1,2.4c0,0.9-0.3,1.7-1,2.4C118.7,23.3,118,23.6,117,23.6z M117,33.5c-0.9,0-1.7-0.3-2.4-1c-0.6-0.6-0.9-1.4-0.9-2.4
	c0-0.9,0.3-1.7,0.9-2.4c0.6-0.6,1.4-1,2.4-1c0.9,0,1.7,0.3,2.4,1c0.6,0.6,1,1.4,1,2.4c0,0.9-0.3,1.7-1,2.4
	C118.7,33.2,118,33.5,117,33.5z"/>
</svg>
