<?xml version="1.0" encoding="utf-8"?>
<!-- Generator: Adobe Illustrator 26.0.3, SVG Export Plug-In . SVG Version: 6.00 Build 0)  -->
<svg version="1.1" id="Layer_1" xmlns="http://www.w3.org/2000/svg" xmlns:xlink="http://www.w3.org/1999/xlink" x="0px" y="0px"
	 viewBox="0 0 99 104" style="enable-background:new 0 0 99 104;" xml:space="preserve">
<style type="text/css">
	.st0{clipPath:url(#SVGID_00000047755120230662315510000006747180853677429669_);}
	.st1{opacity:0.7;fill:#377DFF;enable-background:new    ;}
	.st2{fill:#6D4A96;}
	.st3{fill:#F9BF1C;}
	.st4{fill:#F7941E;}
	.st5{fill:#02B9FF;}
	.st6{fill:#008CFF;}
	.st7{fill:#956DAF;}
	.st8{fill:#FFFFFF;}
</style>
<g>
	<g>
		<defs>
			<rect id="SVGID_1_" x="0" y="0.4" width="98.9" height="103.2"/>
		</defs>
		<clipPath id="SVGID_00000152263685493578163640000003886714590478203052_">
			<use xlink:href="#SVGID_1_"  style="overflow:visible;"/>
		</clipPath>
		<g style="clipPath:url(#SVGID_00000152263685493578163640000003886714590478203052_);">
			<path class="st1" d="M-64.9,34.6c-9.9,0-18-8-18-18c0-9.9,8-18,18-18h11.3c3.7,0,6.6,3,6.6,6.6v11.4C-47,26.6-55,34.6-64.9,34.6z
				"/>
		</g>
	</g>
	<g id="XMLID_759_">
		<g id="XMLID_940_">
			<circle id="XMLID_942_" class="st2" cx="31.5" cy="22" r="2.6"/>
			<polygon id="XMLID_941_" class="st2" points="27.5,27.3 27.5,33.2 32.6,30.2 35.8,35.7 38.5,34.1 41.3,32.5 38.1,27 43.2,24.1 
				38.1,21.1 35.5,22.7 34.5,27.1 30.1,25.8 			"/>
		</g>
		<g id="XMLID_894_">
			<circle id="XMLID_939_" class="st3" cx="38.7" cy="38.6" r="2.6"/>
			<polygon id="XMLID_938_" class="st3" points="41.3,44.8 46.4,47.7 46.4,41.8 52.7,41.8 52.7,38.6 52.7,35.5 46.4,35.5 46.4,29.6 
				41.3,32.5 41.3,35.5 44.6,38.6 41.3,41.8 			"/>
		</g>
		<g id="XMLID_769_">
			<circle id="XMLID_893_" class="st4" cx="56.7" cy="40.8" r="2.6"/>
			<polygon id="XMLID_892_" class="st4" points="63.3,41.6 68.4,38.6 63.3,35.7 66.5,30.2 63.7,28.6 61,27 57.8,32.5 52.7,29.6 
				52.7,35.5 55.3,37 59.7,35.6 60.7,40.1 			"/>
		</g>
		<g id="XMLID_766_">
			<circle id="XMLID_768_" class="st5" cx="67.6" cy="26.2" r="2.6"/>
			<polygon id="XMLID_767_" class="st5" points="71.6,20.9 71.6,15 66.5,18 63.3,12.5 60.6,14.1 57.8,15.7 61,21.1 55.9,24.1 61,27 
				63.6,25.5 64.6,21.1 69,22.4 			"/>
		</g>
		<g id="XMLID_763_">
			<circle id="XMLID_765_" class="st6" cx="60.4" cy="9.5" r="2.6"/>
			<polygon id="XMLID_764_" class="st6" points="57.8,3.4 52.7,0.5 52.7,6.3 46.4,6.3 46.4,9.5 46.4,12.7 52.7,12.7 52.7,18.6 
				57.8,15.7 57.8,12.6 54.5,9.5 57.8,6.4 			"/>
		</g>
		<g id="XMLID_760_">
			<circle id="XMLID_762_" class="st7" cx="42.4" cy="7.4" r="2.6"/>
			<polygon id="XMLID_761_" class="st7" points="35.8,6.6 30.7,9.5 35.8,12.5 32.6,18 35.4,19.6 38.1,21.1 41.3,15.7 46.4,18.6 
				46.4,12.7 43.8,11.2 39.4,12.6 38.4,8.1 			"/>
		</g>
	</g>
	<g>
		<path id="XMLID_757_" class="st8" d="M1,81.8l3.5-4.9C6.7,79.1,10,81,14.2,81c3.6,0,5.3-1.6,5.3-3.4c0-5.4-17.5-1.7-17.5-13.2
			c0-5.1,4.4-9.3,11.6-9.3c4.8,0,8.9,1.5,11.9,4.3l-3.6,4.8c-2.5-2.3-5.8-3.3-8.9-3.3c-2.8,0-4.3,1.2-4.3,3.1
			c0,4.8,17.5,1.6,17.5,13c0,5.6-4,9.8-12.2,9.8C8,86.7,3.8,84.7,1,81.8z"/>
		<path id="XMLID_741_" class="st8" d="M54.6,86.1V73.3H40.2v12.8h-6.5V55.6h6.5v12h14.4v-12h6.5v30.5H54.6z"/>
		<path id="XMLID_680_" class="st8" d="M68.9,70.9c0-9.6,7.3-15.8,16.2-15.8c6.4,0,10.3,3.2,12.6,6.8l-5.4,2.9c-1.4-2.1-4-4-7.2-4
			c-5.5,0-9.6,4.3-9.6,10s4,10,9.6,10c2.7,0,5.3-1.2,6.5-2.3v-3.7h-8v-5.7h14.5v11.7c-3.1,3.5-7.4,5.8-13,5.8
			C76.2,86.7,68.9,80.5,68.9,70.9z"/>
	</g>
	<g>
		<path id="XMLID_678_" class="st8" d="M8.7,100.9v-4.4H3.1v4.4H1.9v-9.6h1.2v4.1h5.6v-4.1h1.2v9.6H8.7z"/>
		<path id="XMLID_676_" class="st8" d="M13.2,100.9v-9.6h6.3v1.1h-5.1v3.1h5v1.1h-5v3.3h5.1v1.1H13.2z"/>
		<path id="XMLID_673_" class="st8" d="M29.4,100.9l-0.8-2.1h-4.8l-0.8,2.1h-1.4l3.8-9.6h1.5l3.9,9.6H29.4z M26.1,92.6l-2,5.1h4.1
			L26.1,92.6z"/>
		<path id="XMLID_671_" class="st8" d="M33,100.9v-9.6h1.2v8.5h4.4v1.1H33z"/>
		<path id="XMLID_669_" class="st8" d="M42.2,100.9v-8.5h-3v-1.1h7.2v1.1h-3v8.5H42.2z"/>
		<path id="XMLID_648_" class="st8" d="M55.6,100.9v-4.4H50v4.4h-1.2v-9.6H50v4.1h5.6v-4.1h1.2v9.6H55.6z"/>
		<path id="XMLID_645_" class="st8" d="M59.6,96.2c0-2.9,2.2-4.9,4.9-4.9c1.7,0,2.9,0.8,3.6,1.9l-1,0.6c-0.5-0.8-1.5-1.4-2.6-1.4
			c-2.1,0-3.7,1.6-3.7,3.9c0,2.3,1.6,3.9,3.7,3.9c1.1,0,2.1-0.6,2.6-1.4l1,0.6c-0.8,1.1-1.9,1.9-3.6,1.9
			C61.8,101.1,59.6,99.1,59.6,96.2z"/>
		<path id="XMLID_636_" class="st8" d="M77.6,100.9l-0.8-2.1H72l-0.8,2.1h-1.4l3.8-9.6h1.5l3.9,9.6H77.6z M74.4,92.6l-2,5.1h4.1
			L74.4,92.6z"/>
		<path id="XMLID_633_" class="st8" d="M86.8,100.9l-2.4-3.8h-1.9v3.8h-1.2v-9.6h3.8c1.7,0,3,1.1,3,2.9c0,1.7-1.2,2.7-2.5,2.8
			l2.6,3.9H86.8z M86.8,94.3c0-1.1-0.8-1.8-1.9-1.8h-2.5v3.7h2.5C86.1,96.1,86.8,95.3,86.8,94.3z"/>
		<path id="XMLID_631_" class="st8" d="M90.9,100.9v-9.6h6.3v1.1h-5.1v3.1h5v1.1h-5v3.3h5.1v1.1H90.9z"/>
	</g>
</g>
</svg>
