<?xml version="1.0" encoding="utf-8"?>
<!-- Generator: Adobe Illustrator 26.0.3, SVG Export Plug-In . SVG Version: 6.00 Build 0)  -->
<svg version="1.1" id="Layer_1" xmlns="http://www.w3.org/2000/svg" xmlns:xlink="http://www.w3.org/1999/xlink" x="0px" y="0px"
	 viewBox="0 0 46 46" style="enable-background:new 0 0 46 46;" xml:space="preserve">
<style type="text/css">
	.st0{fill:#6D4A96;}
	.st1{fill:#F9BF1C;}
	.st2{fill:#F7941E;}
	.st3{fill:#02B9FF;}
	.st4{fill:#008CFF;}
	.st5{fill:#956DAF;}
</style>
<g id="XMLID_759_">
	<g id="XMLID_940_">
		<circle id="XMLID_942_" class="st0" cx="5.9" cy="21" r="2.5"/>
		<polygon id="XMLID_941_" class="st0" points="2,26 2,31.6 6.9,28.8 9.9,34 12.5,32.5 15.1,31 12.1,25.8 17,23 12.1,20.2 9.6,21.6 
			8.7,25.9 4.5,24.6 		"/>
	</g>
	<g id="XMLID_894_">
		<circle id="XMLID_939_" class="st1" cx="12.7" cy="36.8" r="2.5"/>
		<polygon id="XMLID_938_" class="st1" points="15.1,42.7 20,45.5 20,39.9 26,39.9 26,36.8 26,33.8 20,33.8 20,28.2 15.1,31 
			15.1,33.9 18.3,36.8 15.1,39.8 		"/>
	</g>
	<g id="XMLID_769_">
		<circle id="XMLID_893_" class="st2" cx="29.8" cy="38.8" r="2.5"/>
		<polygon id="XMLID_892_" class="st2" points="36.1,39.6 40.9,36.8 36.1,34 39.1,28.8 36.5,27.3 33.9,25.8 30.9,31 26,28.2 
			26,33.8 28.5,35.2 32.7,34 33.6,38.2 		"/>
	</g>
	<g id="XMLID_766_">
		<circle id="XMLID_768_" class="st3" cx="40.1" cy="25" r="2.5"/>
		<polygon id="XMLID_767_" class="st3" points="44,20 44,14.4 39.1,17.2 36.1,12 33.5,13.5 30.9,15 33.9,20.2 29,23 33.9,25.8 
			36.4,24.4 37.3,20.1 41.5,21.4 		"/>
	</g>
	<g id="XMLID_763_">
		<circle id="XMLID_765_" class="st4" cx="33.3" cy="9.2" r="2.5"/>
		<polygon id="XMLID_764_" class="st4" points="30.9,3.3 26,0.5 26,6.1 20,6.1 20,9.2 20,12.2 26,12.2 26,17.8 30.9,15 30.9,12.1 
			27.7,9.2 30.9,6.2 		"/>
	</g>
	<g id="XMLID_760_">
		<circle id="XMLID_762_" class="st5" cx="16.2" cy="7.2" r="2.5"/>
		<polygon id="XMLID_761_" class="st5" points="9.9,6.4 5.1,9.2 9.9,12 6.9,17.2 9.5,18.7 12.1,20.2 15.1,15 20,17.8 20,12.2 
			17.5,10.8 13.3,12 12.4,7.8 		"/>
	</g>
</g>
</svg>
