<svg width="22" height="22" viewBox="0 0 22 22" fill="none" xmlns="http://www.w3.org/2000/svg">
<path d="M7.08 10.61C7.78 10.61 8.38667 10.3533 8.9 9.83999C9.41333 9.32666 9.67 8.70832 9.67 7.98499C9.67 7.26166 9.41333 6.64332 8.9 6.12999C8.38667 5.61666 7.76833 5.35999 7.045 5.35999C6.32167 5.35999 5.70333 5.61666 5.19 6.12999C4.67667 6.64332 4.42 7.26166 4.42 7.98499C4.42 8.70832 4.67667 9.32666 5.19 9.83999C5.70333 10.3533 6.33333 10.61 7.08 10.61ZM12.33 7.31999C12.33 7.13332 12.3883 6.98166 12.505 6.86499C12.6217 6.74832 12.7733 6.68999 12.96 6.68999H18.21C18.3967 6.68999 18.56 6.74832 18.7 6.86499C18.84 6.98166 18.91 7.13332 18.91 7.31999C18.91 7.50666 18.84 7.65832 18.7 7.77499C18.56 7.89166 18.3967 7.97332 18.21 8.01999H12.96C12.7733 7.97332 12.6217 7.89166 12.505 7.77499C12.3883 7.65832 12.33 7.50666 12.33 7.31999ZM12.33 10.61C12.33 10.4233 12.3883 10.2717 12.505 10.155C12.6217 10.0383 12.7733 9.97999 12.96 9.97999H18.21C18.3967 9.97999 18.56 10.0383 18.7 10.155C18.84 10.2717 18.91 10.4233 18.91 10.61C18.91 10.7967 18.84 10.9483 18.7 11.065C18.56 11.1817 18.3967 11.24 18.21 11.24H12.96C12.7733 11.24 12.6217 11.1817 12.505 11.065C12.3883 10.9483 12.33 10.7967 12.33 10.61ZM13.66 13.9C13.66 13.7133 13.7183 13.55 13.835 13.41C13.9517 13.27 14.1033 13.2 14.29 13.2H18.21C18.3967 13.2 18.56 13.27 18.7 13.41C18.84 13.55 18.91 13.7133 18.91 13.9C18.91 14.0867 18.84 14.2383 18.7 14.355C18.56 14.4717 18.3967 14.53 18.21 14.53H14.29C14.1033 14.53 13.94 14.4717 13.8 14.355C13.66 14.2383 13.59 14.0867 13.59 13.9H13.66ZM3.16 2.69999C2.41333 2.69999 1.78333 2.95666 1.27 3.46999C0.756667 3.98332 0.5 4.61332 0.5 5.35999V15.86C0.5 16.6067 0.756667 17.2367 1.27 17.75C1.78333 18.2633 2.39 18.52 3.09 18.52H18.91C19.61 18.4733 20.2167 18.205 20.73 17.715C21.2433 17.225 21.5 16.6067 21.5 15.86V5.35999C21.5 4.61332 21.2433 3.98332 20.73 3.46999C20.2167 2.95666 19.5867 2.69999 18.84 2.69999H3.16ZM1.83 5.35999C1.83 4.98666 1.95833 4.67166 2.215 4.41499C2.47167 4.15832 2.76333 4.02999 3.09 4.02999H18.91C19.2367 4.02999 19.5283 4.15832 19.785 4.41499C20.0417 4.67166 20.17 4.98666 20.17 5.35999V15.86C20.17 16.2333 20.0417 16.5483 19.785 16.805C19.5283 17.0617 19.2367 17.19 18.91 17.19H12.26C12.3067 16.9567 12.33 16.7233 12.33 16.49C12.33 15.6967 12.0967 14.9383 11.63 14.215C11.1633 13.4917 10.5217 12.9317 9.705 12.535C8.88833 12.1383 8.025 11.94 7.115 11.94C6.205 11.94 5.365 12.1267 4.595 12.5C3.825 12.8733 3.195 13.375 2.705 14.005C2.215 14.635 1.92333 15.3233 1.83 16.07V15.86V5.35999Z" fill="#677788"/>
</svg>
