<svg width="22" height="22" viewBox="0 0 22 22" fill="none" xmlns="http://www.w3.org/2000/svg">
<path d="M11 11.11C12.0733 11.11 12.995 10.725 13.765 9.95501C14.535 9.18501 14.92 8.25168 14.92 7.15501C14.92 6.05835 14.535 5.13668 13.765 4.39001C12.995 3.64335 12.0733 3.25835 11 3.23501C9.92667 3.21168 9.005 3.58501 8.235 4.35501C7.465 5.12501 7.08 6.05835 7.08 7.15501C7.08 8.25168 7.465 9.18501 8.235 9.95501C9.005 10.725 9.92667 11.11 11 11.11ZM13.66 7.19001C13.66 7.89001 13.4033 8.49668 12.89 9.01001C12.3767 9.52335 11.7467 9.78001 11 9.78001C10.2533 9.78001 9.62334 9.52335 9.11 9.01001C8.59667 8.49668 8.35167 7.87835 8.375 7.15501C8.39834 6.43168 8.655 5.81335 9.145 5.30001C9.635 4.78668 10.2533 4.53001 11 4.53001C11.7467 4.53001 12.3767 4.78668 12.89 5.30001C13.4033 5.81335 13.66 6.44335 13.66 7.19001ZM18.91 17.69C18.91 18.0633 18.805 18.3433 18.595 18.53C18.385 18.7167 18.1633 18.8567 17.93 18.95H17.58H4.42H4.07C3.83667 18.8567 3.62667 18.7167 3.44 18.53C3.25334 18.3433 3.16 18.0633 3.16 17.69C3.16 17.0833 3.34667 16.43 3.72 15.73C4.23334 14.7967 5.00334 14.05 6.03 13.49C7.33667 12.79 8.99334 12.44 11 12.44C13.0067 12.44 14.6633 12.79 15.97 13.49C16.9967 14.05 17.7667 14.7967 18.28 15.73C18.7 16.43 18.91 17.0833 18.91 17.69ZM17.58 17.69C17.58 17.41 17.51 17.1067 17.37 16.78C17.1367 16.3133 16.8333 15.87 16.46 15.45C15.9467 14.9833 15.3167 14.5867 14.57 14.26C13.5433 13.8867 12.3533 13.7117 11 13.735C9.64667 13.7583 8.45667 13.9333 7.43 14.26C6.68334 14.5867 6.05334 14.9833 5.54 15.45C5.16667 15.87 4.86334 16.3133 4.63 16.78C4.49 17.1067 4.42 17.41 4.42 17.69H17.58Z" fill="#677788"/>
</svg>
