<svg width="22" height="22" viewBox="0 0 22 22" fill="none" xmlns="http://www.w3.org/2000/svg">
<path d="M11 12.01C11.8867 12.01 12.6567 11.6833 13.31 11.03C13.9633 10.3767 14.29 9.59499 14.29 8.68499C14.29 7.77499 13.9633 7.00499 13.31 6.37499C12.6567 5.74499 11.8867 5.42999 11 5.42999C10.1133 5.42999 9.34333 5.74499 8.69 6.37499C8.03667 7.00499 7.71 7.77499 7.71 8.68499C7.71 9.59499 8.03667 10.3767 8.69 11.03C9.34333 11.6833 10.1133 12.01 11 12.01ZM1.83 1.43999C1.45667 1.43999 1.14167 1.56832 0.885 1.82499C0.628333 2.08165 0.5 2.37332 0.5 2.69999V17.19C0.5 17.5633 0.628333 17.8783 0.885 18.135C1.14167 18.3917 1.45667 18.4967 1.83 18.45H2.46C2.64667 18.45 2.81 18.3917 2.95 18.275C3.09 18.1583 3.16 18.0067 3.16 17.82C3.16 17.6333 3.21833 17.4817 3.335 17.365C3.45167 17.2483 3.60333 17.19 3.79 17.19C3.97667 17.19 4.12833 17.2483 4.245 17.365C4.36167 17.4817 4.42 17.6333 4.42 17.82C4.42 18.0067 4.49 18.1583 4.63 18.275C4.77 18.3917 4.93333 18.45 5.12 18.45H16.88C17.0667 18.45 17.23 18.3917 17.37 18.275C17.51 18.1583 17.58 18.0067 17.58 17.82C17.58 17.6333 17.6383 17.4817 17.755 17.365C17.8717 17.2483 18.0233 17.19 18.21 17.19C18.3967 17.19 18.56 17.2483 18.7 17.365C18.84 17.4817 18.91 17.6333 18.91 17.82C18.91 18.0067 18.9683 18.1583 19.085 18.275C19.2017 18.3917 19.3533 18.45 19.54 18.45H20.17C20.5433 18.45 20.8583 18.3333 21.115 18.1C21.3717 17.8667 21.5 17.5633 21.5 17.19V4.02999C21.5 3.65665 21.3717 3.34165 21.115 3.08499C20.8583 2.82832 20.5433 2.69999 20.17 2.69999H9.32L8.41 1.78999C8.13 1.55665 7.80333 1.43999 7.43 1.43999H1.83ZM1.83 2.69999H7.43L8.41 3.67999C8.64333 3.91332 8.94667 4.02999 9.32 4.02999H20.17V17.19H20.1C19.96 16.8633 19.7733 16.595 19.54 16.385C19.3067 16.175 19.0383 16.0233 18.735 15.93C18.4317 15.8367 18.1167 15.825 17.79 15.895C17.4633 15.965 17.1833 16.1167 16.95 16.35C16.4367 15.4633 15.76 14.7633 14.92 14.25C13.8467 13.55 12.54 13.2 11 13.2C9.46 13.2 8.15333 13.55 7.08 14.25C6.24 14.7633 5.56333 15.4633 5.05 16.35C4.81667 16.1167 4.53667 15.965 4.21 15.895C3.88333 15.825 3.56833 15.8367 3.265 15.93C2.96167 16.0233 2.69333 16.175 2.46 16.385C2.22667 16.595 2.04 16.8633 1.9 17.19H1.83V2.69999Z" fill="#677788"/>
</svg>
