<svg width="19" height="19" viewBox="0 0 19 19" fill="none" xmlns="http://www.w3.org/2000/svg">
<path d="M13.88 18.61C14.72 18.61 15.49 18.4 16.19 17.98C16.89 17.56 17.45 17 17.87 16.3C18.29 15.6 18.5 14.8417 18.5 14.025C18.5 13.2083 18.29 12.4383 17.87 11.715C17.45 10.9917 16.89 10.4317 16.19 10.035C15.49 9.63832 14.7316 9.43999 13.915 9.43999C13.0983 9.43999 12.3283 9.63832 11.605 10.035C10.8816 10.4317 10.3216 10.9917 9.92497 11.715C9.52831 12.4383 9.32997 13.2083 9.32997 14.025C9.32997 14.8417 9.52831 15.6 9.92497 16.3C10.3216 17 10.8816 17.56 11.605 17.98C12.3283 18.4 13.0866 18.61 13.88 18.61ZM16.12 12.73L14.37 15.6C14.1833 15.88 13.9383 16.0433 13.635 16.09C13.3316 16.1367 13.0633 16.0433 12.83 15.81L11.78 14.83C11.6866 14.69 11.64 14.5267 11.64 14.34C11.64 14.1533 11.6983 14.0017 11.815 13.885C11.9316 13.7683 12.0833 13.71 12.27 13.71C12.4566 13.71 12.62 13.7567 12.76 13.85L13.46 14.62L15 12.03C15.0933 11.89 15.2216 11.7967 15.385 11.75C15.5483 11.7033 15.7116 11.7267 15.875 11.82C16.0383 11.9133 16.1433 12.0417 16.19 12.205C16.2366 12.3683 16.2133 12.5433 16.12 12.73ZM11.92 4.18999C11.92 5.26332 11.535 6.18499 10.765 6.95499C9.99497 7.72499 9.07331 8.10999 7.99997 8.10999C6.92664 8.10999 6.00497 7.72499 5.23497 6.95499C4.46497 6.18499 4.07997 5.25165 4.07997 4.15499C4.07997 3.05832 4.46497 2.13665 5.23497 1.38999C6.00497 0.643318 6.92664 0.258318 7.99997 0.234985C9.07331 0.211653 9.99497 0.584986 10.765 1.35499C11.535 2.12498 11.92 3.06999 11.92 4.18999ZM7.99997 6.77999C8.74664 6.77999 9.37664 6.52332 9.88997 6.00998C10.4033 5.49665 10.66 4.87832 10.66 4.15499C10.66 3.43165 10.4033 2.81332 9.88997 2.29999C9.37664 1.78665 8.74664 1.52999 7.99997 1.52999C7.25331 1.52999 6.62331 1.78665 6.10997 2.29999C5.59664 2.81332 5.35164 3.43165 5.37497 4.15499C5.39831 4.87832 5.65497 5.49665 6.14497 6.00998C6.63497 6.52332 7.25331 6.77999 7.99997 6.77999ZM8.34997 15.95C8.20997 15.53 8.11664 15.11 8.06997 14.69H1.41997C1.41997 14.41 1.48997 14.1067 1.62997 13.78C1.86331 13.3133 2.16664 12.87 2.53997 12.45C3.05331 11.9833 3.68331 11.5867 4.42997 11.26C5.45664 10.8867 6.64664 10.7 7.99997 10.7L8.97997 10.77C9.25997 10.3033 9.60997 9.90665 10.03 9.57999C9.42331 9.48665 8.74664 9.43999 7.99997 9.43999C5.99331 9.43999 4.33664 9.78999 3.02997 10.49C2.00331 11.05 1.23331 11.7967 0.719973 12.73C0.34664 13.43 0.159973 14.0833 0.159973 14.69C0.159973 15.0633 0.253306 15.3433 0.439973 15.53C0.62664 15.7167 0.83664 15.8567 1.06997 15.95H1.41997H8.34997Z" fill="#677788"/>
</svg>
