<svg width="22" height="22" viewBox="0 0 22 22" fill="none" xmlns="http://www.w3.org/2000/svg">
<path d="M20.17 18.95C20.31 18.95 20.4267 18.95 20.52 18.95C20.8 18.8567 21.0333 18.7167 21.22 18.53C21.4067 18.3433 21.5 18.0633 21.5 17.69C21.5 17.0833 21.3133 16.43 20.94 15.73C20.4733 14.7967 19.82 14.05 18.98 13.49C17.86 12.79 16.5067 12.44 14.92 12.44C13.3333 12.44 12.0033 12.79 10.93 13.49C10.0433 14.05 9.36667 14.7967 8.9 15.73C8.57333 16.43 8.41 17.0833 8.41 17.69C8.41 18.0633 8.50333 18.3433 8.69 18.53C8.87667 18.7167 9.08667 18.8567 9.32 18.95H9.67H20.17ZM9.74 17.69H9.67C9.67 17.41 9.74 17.1067 9.88 16.78C10.0667 16.2667 10.3467 15.8 10.72 15.38C11.6533 14.3067 13.065 13.7583 14.955 13.735C16.845 13.7117 18.2567 14.26 19.19 15.38C19.5167 15.8 19.7733 16.2667 19.96 16.78C20.1 17.1067 20.17 17.41 20.17 17.69H9.74ZM14.92 9.78001C15.6667 9.78001 16.2967 9.52335 16.81 9.01001C17.3233 8.49668 17.58 7.87835 17.58 7.15501C17.58 6.43168 17.3233 5.81335 16.81 5.30001C16.2967 4.78668 15.6783 4.53001 14.955 4.53001C14.2317 4.53001 13.6133 4.78668 13.1 5.30001C12.5867 5.81335 12.33 6.43168 12.33 7.15501C12.33 7.87835 12.5867 8.49668 13.1 9.01001C13.6133 9.52335 14.22 9.78001 14.92 9.78001ZM18.91 7.19001C18.91 8.26335 18.525 9.18501 17.755 9.95501C16.985 10.725 16.0517 11.11 14.955 11.11C13.8583 11.11 12.925 10.725 12.155 9.95501C11.385 9.18501 11 8.25168 11 7.15501C11 6.05835 11.385 5.13668 12.155 4.39001C12.925 3.64335 13.8583 3.25835 14.955 3.23501C16.0517 3.21168 16.9733 3.58501 17.72 4.35501C18.4667 5.12501 18.84 6.07001 18.84 7.19001H18.91ZM9.6 12.79C9.08667 12.6033 8.55 12.4867 7.99 12.44C7.66333 12.44 7.36 12.44 7.08 12.44C5.49333 12.44 4.14 12.79 3.02 13.49C2.18 14.05 1.52667 14.7967 1.06 15.73C0.686667 16.43 0.5 17.0833 0.5 17.69C0.5 18.53 0.943333 18.95 1.83 18.95H7.36C7.17333 18.5767 7.08 18.1567 7.08 17.69C7.08 16.29 7.54667 15.0067 8.48 13.84C8.80667 13.4667 9.18 13.1167 9.6 12.79ZM6.94 13.7C6.14667 14.9133 5.75 16.2433 5.75 17.69H1.83C1.83 17.4567 1.9 17.1533 2.04 16.78C2.22667 16.2667 2.48333 15.8 2.81 15.38C3.74333 14.3067 5.12 13.77 6.94 13.77V13.7ZM2.46 7.82001C2.46 6.74668 2.845 5.82501 3.615 5.05501C4.385 4.28501 5.31833 3.90001 6.415 3.90001C7.51167 3.90001 8.445 4.28501 9.215 5.05501C9.985 5.82501 10.37 6.74668 10.37 7.82001C10.37 8.89335 9.985 9.81501 9.215 10.585C8.445 11.355 7.51167 11.74 6.415 11.74C5.31833 11.74 4.385 11.355 3.615 10.585C2.845 9.81501 2.46 8.89335 2.46 7.82001ZM6.38 5.23001C5.68 5.23001 5.07333 5.48668 4.56 6.00001C4.04667 6.51335 3.79 7.13168 3.79 7.85501C3.79 8.57835 4.04667 9.19668 4.56 9.71001C5.07333 10.2233 5.69167 10.48 6.415 10.48C7.13833 10.48 7.75667 10.2233 8.27 9.71001C8.78333 9.19668 9.04 8.57835 9.04 7.85501C9.04 7.13168 8.78333 6.51335 8.27 6.00001C7.75667 5.48668 7.12667 5.23001 6.38 5.23001Z" fill="#677788"/>
</svg>
