<svg width="22" height="22" viewBox="0 0 22 22" fill="none" xmlns="http://www.w3.org/2000/svg">
<path d="M14.92 6.68999C14.92 7.76332 14.535 8.68499 13.765 9.45499C12.995 10.225 12.0733 10.61 11 10.61C9.92664 10.61 9.00497 10.225 8.23497 9.45499C7.46497 8.68499 7.07997 7.75165 7.07997 6.65499C7.07997 5.55832 7.46497 4.63665 8.23497 3.88999C9.00497 3.14332 9.92664 2.75832 11 2.73499C12.0733 2.71165 12.995 3.08499 13.765 3.85499C14.535 4.62498 14.92 5.56999 14.92 6.68999ZM11 9.27999C11.7466 9.27999 12.3766 9.02332 12.89 8.50998C13.4033 7.99665 13.66 7.37832 13.66 6.65499C13.66 5.93165 13.4033 5.31332 12.89 4.79999C12.3766 4.28665 11.7466 4.02999 11 4.02999C10.2533 4.02999 9.62331 4.28665 9.10997 4.79999C8.59664 5.31332 8.35164 5.93165 8.37497 6.65499C8.39831 7.37832 8.65497 7.99665 9.14497 8.50998C9.63497 9.02332 10.2533 9.27999 11 9.27999ZM11 17.19V18.45H4.41997H4.06997C3.83664 18.3567 3.62664 18.2167 3.43997 18.03C3.25331 17.8433 3.15997 17.5633 3.15997 17.19C3.15997 16.5833 3.34664 15.93 3.71997 15.23C4.23331 14.2967 5.00331 13.55 6.02997 12.99C7.33664 12.29 8.99331 11.94 11 11.94C11.7466 11.94 12.4233 11.9867 13.03 12.08C12.61 12.4067 12.26 12.8033 11.98 13.27L11 13.2C9.64664 13.2 8.45664 13.3867 7.42997 13.76C6.68331 14.0867 6.05331 14.4833 5.53997 14.95C5.16664 15.37 4.86331 15.8133 4.62997 16.28C4.48997 16.6067 4.41997 16.91 4.41997 17.19H11ZM12.33 17.19C12.33 16.8167 12.4583 16.5017 12.715 16.245C12.9716 15.9883 13.2866 15.86 13.66 15.86V14.53C13.66 13.83 13.905 13.2233 14.395 12.71C14.885 12.1967 15.5033 11.94 16.25 11.94C16.9966 11.94 17.6266 12.1967 18.14 12.71C18.6533 13.2233 18.91 13.83 18.91 14.53V15.86C19.2366 15.86 19.5283 15.9883 19.785 16.245C20.0416 16.5017 20.17 16.8167 20.17 17.19V19.78C20.17 20.1533 20.0416 20.4683 19.785 20.725C19.5283 20.9817 19.2366 21.11 18.91 21.11H13.66C13.2866 21.11 12.9716 20.9817 12.715 20.725C12.4583 20.4683 12.33 20.1533 12.33 19.78V17.19ZM16.25 13.2C15.8766 13.2467 15.5616 13.3867 15.305 13.62C15.0483 13.8533 14.92 14.1567 14.92 14.53V15.86H17.58V14.53C17.58 14.1567 17.4516 13.8533 17.195 13.62C16.9383 13.3867 16.6233 13.2467 16.25 13.2Z" fill="#677788"/>
</svg>
