<svg width="22" height="22" viewBox="0 0 22 22" fill="none" xmlns="http://www.w3.org/2000/svg">
<path d="M14.92 7.18999C14.92 8.26332 14.535 9.18499 13.765 9.95499C12.995 10.725 12.0733 11.11 11 11.11C9.92667 11.11 9.005 10.725 8.235 9.95499C7.465 9.18499 7.08 8.25165 7.08 7.15499C7.08 6.05832 7.465 5.13665 8.235 4.38999C9.005 3.64332 9.92667 3.25832 11 3.23499C12.0733 3.21165 12.995 3.58499 13.765 4.35499C14.535 5.12498 14.92 6.06999 14.92 7.18999ZM3.16 17.69C3.16 18.0633 3.25334 18.3433 3.44 18.53C3.62667 18.7167 3.83667 18.8567 4.07 18.95H4.42H11.35C11.1167 18.3433 11 17.69 11 16.99C11 16.15 11.175 15.345 11.525 14.575C11.875 13.805 12.3767 13.14 13.03 12.58C12.4233 12.4867 11.7467 12.44 11 12.44C8.99334 12.44 7.33667 12.79 6.03 13.49C5.00334 14.05 4.23334 14.7967 3.72 15.73C3.34667 16.43 3.16 17.0833 3.16 17.69ZM21.5 16.99C21.5 17.83 21.29 18.6 20.87 19.3C20.45 20 19.89 20.56 19.19 20.98C18.49 21.4 17.7317 21.61 16.915 21.61C16.0983 21.61 15.3283 21.4 14.605 20.98C13.8817 20.56 13.3217 20 12.925 19.3C12.5283 18.6 12.33 17.8417 12.33 17.025C12.33 16.2083 12.5283 15.4383 12.925 14.715C13.3217 13.9917 13.8817 13.4317 14.605 13.035C15.3283 12.6383 16.0983 12.44 16.915 12.44C17.7317 12.44 18.49 12.6383 19.19 13.035C19.89 13.4317 20.45 13.9917 20.87 14.715C21.29 15.4383 21.5 16.1967 21.5 16.99ZM16.88 14.4C16.6933 14.4 16.5417 14.4583 16.425 14.575C16.3083 14.6917 16.25 14.8433 16.25 15.03V16.99C16.25 17.1767 16.3083 17.34 16.425 17.48C16.5417 17.62 16.6933 17.69 16.88 17.69C17.0667 17.69 17.23 17.62 17.37 17.48C17.51 17.34 17.58 17.1767 17.58 16.99V15.03C17.58 14.8433 17.51 14.6917 17.37 14.575C17.23 14.4583 17.0667 14.4 16.88 14.4ZM16.88 19.65C17.0667 19.65 17.23 19.58 17.37 19.44C17.51 19.3 17.58 19.1483 17.58 18.985C17.58 18.8217 17.51 18.67 17.37 18.53C17.23 18.39 17.0667 18.32 16.88 18.32C16.6933 18.32 16.5417 18.39 16.425 18.53C16.3083 18.67 16.25 18.8217 16.25 18.985C16.25 19.1483 16.3083 19.3 16.425 19.44C16.5417 19.58 16.6933 19.65 16.88 19.65Z" fill="#677788"/>
</svg>
