<svg width="22" height="22" viewBox="0 0 22 22" fill="none" xmlns="http://www.w3.org/2000/svg">
<path d="M5.75 21.11C5.65667 21.11 5.54 21.0867 5.4 21.04C5.16667 20.9933 4.945 20.8767 4.735 20.69C4.525 20.5033 4.42 20.2 4.42 19.78C4.42 19.22 4.60667 18.5667 4.98 17.82C5.44667 16.9333 6.1 16.21 6.94 15.65C8.06 14.9033 9.41333 14.53 11 14.53C12.5867 14.53 13.94 14.9033 15.06 15.65C15.9 16.21 16.5533 16.9333 17.02 17.82C17.3933 18.5667 17.58 19.22 17.58 19.78C17.58 20.2 17.475 20.5033 17.265 20.69C17.055 20.8767 16.8333 20.9933 16.6 21.04L16.25 21.11H5.75ZM11 13.27C11.8867 13.27 12.6567 12.955 13.31 12.325C13.9633 11.695 14.29 10.925 14.29 10.015C14.29 9.10499 13.9633 8.33499 13.31 7.70499C12.6567 7.07499 11.8867 6.75998 11 6.75998C10.1133 6.75998 9.34333 7.07499 8.69 7.70499C8.03667 8.33499 7.71 9.10499 7.71 10.015C7.71 10.925 8.03667 11.695 8.69 12.325C9.34333 12.955 10.1133 13.27 11 13.27ZM3.16 1.43999C2.41333 1.43999 1.78333 1.69665 1.27 2.20999C0.756667 2.72332 0.5 3.32998 0.5 4.02999V16.49C0.5 17.05 0.686667 17.5283 1.06 17.925C1.43333 18.3217 1.9 18.52 2.46 18.52H3.3C3.58 17.54 4.04667 16.6533 4.7 15.86H1.83V4.02999C1.83 3.65665 1.95833 3.34165 2.215 3.08499C2.47167 2.82832 2.76333 2.69999 3.09 2.69999H18.91C19.2367 2.69999 19.5283 2.82832 19.785 3.08499C20.0417 3.34165 20.17 3.65665 20.17 4.02999V15.86H17.3C17.9533 16.6533 18.42 17.54 18.7 18.52H19.54C20.1 18.4733 20.5667 18.2633 20.94 17.89C21.3133 17.5167 21.5 17.05 21.5 16.49V4.02999C21.5 3.32998 21.2433 2.72332 20.73 2.20999C20.2167 1.69665 19.5867 1.43999 18.84 1.43999H3.16Z" fill="#677788"/>
</svg>
