<?xml version="1.0" encoding="utf-8"?>
<!-- Generator: Adobe Illustrator 26.0.3, SVG Export Plug-In . SVG Version: 6.00 Build 0)  -->
<svg version="1.1" id="Layer_1" xmlns="http://www.w3.org/2000/svg" xmlns:xlink="http://www.w3.org/1999/xlink" x="0px" y="0px"
	 viewBox="0 0 400 400" style="enable-background:new 0 0 400 400;" xml:space="preserve">
<style type="text/css">
	.st0{fillRule:evenodd;clipRule:evenodd;fill:#E7EAF3;}
	.st1{fill:#BEC6D1;}
</style>
<path class="st0" d="M357,400H47c-24.8,0-45-20-45-45V45C2,20,22,0,47,0h310c24.8,0,45,20,45,45v310C402,380,382,400,357,400z"/>
<g>
	<path class="st1" d="M116.4,259.5h7.4c2.1,0,3.7-1.7,3.7-3.7v-7.4c0-2.1-1.7-3.7-3.7-3.7h-7.4c-2.1,0-3.7,1.7-3.7,3.7v7.4
		C112.7,257.8,114.4,259.5,116.4,259.5z"/>
	<path class="st1" d="M116.4,229.7h7.4c2.1,0,3.7-1.7,3.7-3.7v-7.4c0-2.1-1.7-3.7-3.7-3.7h-7.4c-2.1,0-3.7,1.7-3.7,3.7v7.4
		C112.7,228.1,114.4,229.7,116.4,229.7z"/>
	<path class="st1" d="M116.4,289.3h7.4c2.1,0,3.7-1.7,3.7-3.7v-7.4c0-2.1-1.7-3.7-3.7-3.7h-7.4c-2.1,0-3.7,1.7-3.7,3.7v7.4
		C112.7,287.6,114.4,289.3,116.4,289.3z"/>
	<polygon class="st1" points="180.4,206.2 194.5,198 194.5,214.4 209.4,214.4 209.4,198 223.6,206.2 231,193.3 216.9,185.1 
		231,176.9 223.6,164 209.4,172.2 209.4,155.8 194.5,155.8 194.5,172.2 180.4,164 172.9,176.9 187.1,185.1 172.9,193.3 	"/>
	<path class="st1" d="M280.1,229.7h7.4c2.1,0,3.7-1.7,3.7-3.7v-7.4c0-2.1-1.7-3.7-3.7-3.7h-7.4c-2.1,0-3.7,1.7-3.7,3.7v7.4
		C276.4,228.1,278,229.7,280.1,229.7z"/>
	<path class="st1" d="M280.1,289.3h7.4c2.1,0,3.7-1.7,3.7-3.7v-7.4c0-2.1-1.7-3.7-3.7-3.7h-7.4c-2.1,0-3.7,1.7-3.7,3.7v7.4
		C276.4,287.6,278,289.3,280.1,289.3z"/>
	<path class="st1" d="M280.1,259.5h7.4c2.1,0,3.7-1.7,3.7-3.7v-7.4c0-2.1-1.7-3.7-3.7-3.7h-7.4c-2.1,0-3.7,1.7-3.7,3.7v7.4
		C276.4,257.8,278,259.5,280.1,259.5z"/>
	<path class="st1" d="M306.1,185.1h-44.6v-59.5c0-8.2-6.7-14.9-14.9-14.9V95.8c0-8.2-6.7-14.9-14.9-14.9h-59.5
		c-8.2,0-14.9,6.7-14.9,14.9v14.9c-8.2,0-14.9,6.7-14.9,14.9v59.5H97.8c-8.2,0-14.9,6.7-14.9,14.9v104.2c0,8.2,6.7,14.9,14.9,14.9
		h208.3c8.2,0,14.9-6.7,14.9-14.9V200C321,191.8,314.4,185.1,306.1,185.1z M142.5,304.1H97.8V200h44.6V304.1z M172.2,95.8h59.5v14.9
		h-59.5V95.8z M216.9,304.1h-29.8v-44.6h29.8V304.1z M246.6,304.1h-14.9v-44.6c0-8.2-6.7-14.9-14.9-14.9h-29.8
		c-8.2,0-14.9,6.7-14.9,14.9v44.6h-14.9V125.6h89.3V304.1z M306.1,304.1h-44.6V200h44.6V304.1z"/>
</g>
</svg>
