<svg width="9" height="6" viewBox="0 0 9 6" fill="none" xmlns="http://www.w3.org/2000/svg">
<path fillRule="evenodd" clipRule="evenodd" d="M0.554699 0.903698C0.583728 0.874596 0.618213 0.851507 0.656178 0.835753C0.694144 0.819999 0.734845 0.81189 0.775949 0.81189C0.817054 0.81189 0.857755 0.819999 0.89572 0.835753C0.933686 0.851507 0.968171 0.874596 0.997199 0.903698L4.52595 4.43307L8.0547 0.903698C8.08375 0.874643 8.11825 0.851595 8.15621 0.835871C8.19417 0.820147 8.23486 0.812053 8.27595 0.812053C8.31704 0.812053 8.35773 0.820147 8.39569 0.835871C8.43365 0.851595 8.46814 0.874643 8.4972 0.903698C8.52625 0.932753 8.5493 0.967246 8.56503 1.00521C8.58075 1.04317 8.58884 1.08386 8.58884 1.12495C8.58884 1.16604 8.58075 1.20673 8.56503 1.24469C8.5493 1.28265 8.52625 1.31714 8.4972 1.3462L4.7472 5.0962C4.71817 5.1253 4.68369 5.14839 4.64572 5.16414C4.60775 5.1799 4.56705 5.18801 4.52595 5.18801C4.48484 5.18801 4.44414 5.1799 4.40618 5.16414C4.36821 5.14839 4.33373 5.1253 4.3047 5.0962L0.554699 1.3462C0.525597 1.31717 0.502508 1.28268 0.486754 1.24472C0.471 1.20675 0.462891 1.16605 0.462891 1.12495C0.462891 1.08384 0.471 1.04314 0.486754 1.00518C0.502508 0.967211 0.525597 0.932727 0.554699 0.903698Z" fill="#6C757D"/>
</svg>
