<svg width="16" height="17" viewBox="0 0 16 17" fill="none" xmlns="http://www.w3.org/2000/svg">
<path d="M0.5 10.45C0.632608 10.45 0.759785 10.5027 0.853553 10.5964C0.947322 10.6902 1 10.8174 1 10.95V13.45C1 13.7152 1.10536 13.9696 1.29289 14.1571C1.48043 14.3446 1.73478 14.45 2 14.45H14C14.2652 14.45 14.5196 14.3446 14.7071 14.1571C14.8946 13.9696 15 13.7152 15 13.45V10.95C15 10.8174 15.0527 10.6902 15.1464 10.5964C15.2402 10.5027 15.3674 10.45 15.5 10.45C15.6326 10.45 15.7598 10.5027 15.8536 10.5964C15.9473 10.6902 16 10.8174 16 10.95V13.45C16 13.9804 15.7893 14.4891 15.4142 14.8642C15.0391 15.2393 14.5304 15.45 14 15.45H2C1.46957 15.45 0.960859 15.2393 0.585786 14.8642C0.210714 14.4891 0 13.9804 0 13.45V10.95C0 10.8174 0.0526784 10.6902 0.146447 10.5964C0.240215 10.5027 0.367392 10.45 0.5 10.45Z" fill="#6C757D"/>
<path d="M7.646 12.404C7.69245 12.4506 7.74762 12.4875 7.80837 12.5127C7.86911 12.5379 7.93423 12.5509 8 12.5509C8.06577 12.5509 8.13089 12.5379 8.19163 12.5127C8.25238 12.4875 8.30755 12.4506 8.354 12.404L11.354 9.404C11.4479 9.31012 11.5006 9.18278 11.5006 9.05C11.5006 8.91723 11.4479 8.78989 11.354 8.696C11.2601 8.60212 11.1328 8.54937 11 8.54937C10.8672 8.54937 10.7399 8.60212 10.646 8.696L8.5 10.843V2.05C8.5 1.91739 8.44732 1.79022 8.35355 1.69645C8.25979 1.60268 8.13261 1.55 8 1.55C7.86739 1.55 7.74021 1.60268 7.64645 1.69645C7.55268 1.79022 7.5 1.91739 7.5 2.05V10.843L5.354 8.696C5.26011 8.60212 5.13278 8.54937 5 8.54937C4.86722 8.54937 4.73989 8.60212 4.646 8.696C4.55211 8.78989 4.49937 8.91723 4.49937 9.05C4.49937 9.18278 4.55211 9.31012 4.646 9.404L7.646 12.404Z" fill="#6C757D"/>
</svg>
