<svg width="16" height="17" viewBox="0 0 16 17" fill="none" xmlns="http://www.w3.org/2000/svg">
<path d="M16 8.55C16 8.55 13 3.05 8 3.05C3 3.05 0 8.55 0 8.55C0 8.55 3 14.05 8 14.05C13 14.05 16 8.55 16 8.55ZM1.173 8.55C1.65651 7.81513 2.21264 7.13069 2.833 6.507C4.12 5.218 5.88 4.05 8 4.05C10.12 4.05 11.879 5.218 13.168 6.507C13.7884 7.13069 14.3445 7.81513 14.828 8.55C14.77 8.637 14.706 8.733 14.633 8.838C14.298 9.318 13.803 9.958 13.168 10.593C11.879 11.882 10.119 13.05 8 13.05C5.88 13.05 4.121 11.882 2.832 10.593C2.21165 9.96931 1.65652 9.28488 1.173 8.55Z" fill="#6C757D"/>
<path d="M8 6.05C7.33696 6.05 6.70107 6.3134 6.23223 6.78224C5.76339 7.25108 5.5 7.88696 5.5 8.55C5.5 9.21304 5.76339 9.84893 6.23223 10.3178C6.70107 10.7866 7.33696 11.05 8 11.05C8.66304 11.05 9.29893 10.7866 9.76777 10.3178C10.2366 9.84893 10.5 9.21304 10.5 8.55C10.5 7.88696 10.2366 7.25108 9.76777 6.78224C9.29893 6.3134 8.66304 6.05 8 6.05ZM4.5 8.55C4.5 7.62175 4.86875 6.73151 5.52513 6.07513C6.1815 5.41875 7.07174 5.05 8 5.05C8.92826 5.05 9.8185 5.41875 10.4749 6.07513C11.1313 6.73151 11.5 7.62175 11.5 8.55C11.5 9.47826 11.1313 10.3685 10.4749 11.0249C9.8185 11.6813 8.92826 12.05 8 12.05C7.07174 12.05 6.1815 11.6813 5.52513 11.0249C4.86875 10.3685 4.5 9.47826 4.5 8.55Z" fill="#6C757D"/>
</svg>
