<?xml version="1.0" encoding="utf-8"?>
<!-- Generator: Adobe Illustrator 26.0.3, SVG Export Plug-In . SVG Version: 6.00 Build 0)  -->
<svg version="1.1" id="Layer_1" xmlns="http://www.w3.org/2000/svg" xmlns:xlink="http://www.w3.org/1999/xlink" x="0px" y="0px"
	 viewBox="0 0 269 222" style="enable-background:new 0 0 269 222;" xml:space="preserve">
<style type="text/css">
	.st0{fill:#FFFFFF;}
	.st1{fill:none;stroke:#21325B;stroke-width:7;stroke-linecap:round;}
	.st2{fill:none;stroke:#21325B;stroke-width:7;}
</style>
<rect x="4.5" y="4" class="st0" width="260.5" height="217.4"/>
<path class="st1" d="M129,177.5H44.5c-11,0-20-9-20-20V24c0-11,9-20,20-20h57.7c5.3,0,10.4,2.1,14.1,5.9l19.3,19.3
	c3.8,3.8,8.8,5.9,14.1,5.9H245c11,0,20,9,20,20v102.5c0,11-9,20-20,20h-1"/>
<path class="st1" d="M25,18.5h-0.5c-11,0-20,9-20,20v119c0,11,9,20,20,20h20"/>
<path class="st1" d="M129,6.5h87.5c6.5,0,19.4-0.1,19,17.5"/>
<path class="st1" d="M199.5,138.4c7.1,4.7,8.8,6.5,11.8,14.7"/>
<circle class="st2" cx="185.7" cy="161.4" r="38.3"/>
<path class="st1" d="M195.1,181.3l-17.6-10c-0.8-0.4-1.3-1.3-1.3-2.2v-27.6"/>
</svg>
