<?xml version="1.0" encoding="utf-8"?>
<!-- Generator: Adobe Illustrator 26.0.3, SVG Export Plug-In . SVG Version: 6.00 Build 0)  -->
<svg version="1.1" id="Layer_1" xmlns="http://www.w3.org/2000/svg" xmlns:xlink="http://www.w3.org/1999/xlink" x="0px" y="0px"
	 viewBox="0 0 260 192" style="enable-background:new 0 0 260 192;" xml:space="preserve">
<style type="text/css">
	.st0{fill:#21325B;}
	.st1{fill:#F2F3F5;}
	.st2{fill:none;stroke:#FFFFFF;stroke-width:7;stroke-linecap:round;}
</style>
<g>
	<polygon class="st0" points="119.6,74.6 127.2,70.3 127.2,79 135.1,79 135.1,70.3 142.7,74.6 146.7,67.8 139.1,63.4 146.7,59 
		142.7,52.1 135.1,56.5 135.1,47.8 127.2,47.8 127.2,56.5 119.6,52.1 115.6,59 123.2,63.4 115.6,67.8 	"/>
	<path class="st0" d="M85.5,143.2h4c1.1,0,2-0.9,2-2v-4c0-1.1-0.9-2-2-2h-4c-1.1,0-2,0.9-2,2v4C83.5,142.3,84.4,143.2,85.5,143.2z"
		/>
	<path class="st0" d="M172.9,143.2h4c1.1,0,2-0.9,2-2v-4c0-1.1-0.9-2-2-2h-4c-1.1,0-2,0.9-2,2v4
		C170.9,142.3,171.8,143.2,172.9,143.2z"/>
	<path class="st0" d="M85.5,159.1h4c1.1,0,2-0.9,2-2v-4c0-1.1-0.9-2-2-2h-4c-1.1,0-2,0.9-2,2v4C83.5,158.2,84.4,159.1,85.5,159.1z"
		/>
	<path class="st0" d="M172.9,127.3h4c1.1,0,2-0.9,2-2v-4c0-1.1-0.9-2-2-2h-4c-1.1,0-2,0.9-2,2v4
		C170.9,126.4,171.8,127.3,172.9,127.3z"/>
	<path class="st0" d="M172.9,159.1h4c1.1,0,2-0.9,2-2v-4c0-1.1-0.9-2-2-2h-4c-1.1,0-2,0.9-2,2v4
		C170.9,158.2,171.8,159.1,172.9,159.1z"/>
	<path class="st0" d="M85.5,127.3h4c1.1,0,2-0.9,2-2v-4c0-1.1-0.9-2-2-2h-4c-1.1,0-2,0.9-2,2v4C83.5,126.4,84.4,127.3,85.5,127.3z"
		/>
	<path class="st0" d="M68.5,143.2h4c1.1,0,2-0.9,2-2v-4c0-1.1-0.9-2-2-2h-4c-1.1,0-2,0.9-2,2v4C66.5,142.3,67.4,143.2,68.5,143.2z"
		/>
	<path class="st0" d="M68.5,127.3h4c1.1,0,2-0.9,2-2v-4c0-1.1-0.9-2-2-2h-4c-1.1,0-2,0.9-2,2v4C66.5,126.4,67.4,127.3,68.5,127.3z"
		/>
	<path class="st0" d="M68.5,159.1h4c1.1,0,2-0.9,2-2v-4c0-1.1-0.9-2-2-2h-4c-1.1,0-2,0.9-2,2v4C66.5,158.2,67.4,159.1,68.5,159.1z"
		/>
	<path class="st0" d="M52.7,127.3h4c1.1,0,2-0.9,2-2v-4c0-1.1-0.9-2-2-2h-4c-1.1,0-2,0.9-2,2v4C50.8,126.4,51.6,127.3,52.7,127.3z"
		/>
	<path class="st0" d="M52.7,143.2h4c1.1,0,2-0.9,2-2v-4c0-1.1-0.9-2-2-2h-4c-1.1,0-2,0.9-2,2v4C50.8,142.3,51.6,143.2,52.7,143.2z"
		/>
	<path class="st0" d="M52.7,159.1h4c1.1,0,2-0.9,2-2v-4c0-1.1-0.9-2-2-2h-4c-1.1,0-2,0.9-2,2v4C50.8,158.2,51.6,159.1,52.7,159.1z"
		/>
	<path class="st0" d="M37,143.2h4c1.1,0,2-0.9,2-2v-4c0-1.1-0.9-2-2-2h-4c-1.1,0-2,0.9-2,2v4C35,142.3,35.9,143.2,37,143.2z"/>
	<path class="st0" d="M37,159.1h4c1.1,0,2-0.9,2-2v-4c0-1.1-0.9-2-2-2h-4c-1.1,0-2,0.9-2,2v4C35,158.2,35.9,159.1,37,159.1z"/>
	<path class="st0" d="M37,127.3h4c1.1,0,2-0.9,2-2v-4c0-1.1-0.9-2-2-2h-4c-1.1,0-2,0.9-2,2v4C35,126.4,35.9,127.3,37,127.3z"/>
	<path class="st0" d="M21.3,127.3h4c1.1,0,2-0.9,2-2v-4c0-1.1-0.9-2-2-2h-4c-1.1,0-2,0.9-2,2v4C19.3,126.4,20.2,127.3,21.3,127.3z"
		/>
	<path class="st0" d="M21.3,143.2h4c1.1,0,2-0.9,2-2v-4c0-1.1-0.9-2-2-2h-4c-1.1,0-2,0.9-2,2v4C19.3,142.3,20.2,143.2,21.3,143.2z"
		/>
	<path class="st0" d="M21.3,159.1h4c1.1,0,2-0.9,2-2v-4c0-1.1-0.9-2-2-2h-4c-1.1,0-2,0.9-2,2v4C19.3,158.2,20.2,159.1,21.3,159.1z"
		/>
	<path class="st0" d="M234.3,143.2h4c1.1,0,2-0.9,2-2v-4c0-1.1-0.9-2-2-2h-4c-1.1,0-2,0.9-2,2v4
		C232.4,142.3,233.3,143.2,234.3,143.2z"/>
	<path class="st0" d="M234.3,159.1h4c1.1,0,2-0.9,2-2v-4c0-1.1-0.9-2-2-2h-4c-1.1,0-2,0.9-2,2v4
		C232.4,158.2,233.3,159.1,234.3,159.1z"/>
	<path class="st0" d="M234.3,127.3h4c1.1,0,2-0.9,2-2v-4c0-1.1-0.9-2-2-2h-4c-1.1,0-2,0.9-2,2v4
		C232.4,126.4,233.3,127.3,234.3,127.3z"/>
	<path class="st0" d="M218.6,159.1h4c1.1,0,2-0.9,2-2v-4c0-1.1-0.9-2-2-2h-4c-1.1,0-2,0.9-2,2v4
		C216.6,158.2,217.5,159.1,218.6,159.1z"/>
	<path class="st0" d="M218.6,127.3h4c1.1,0,2-0.9,2-2v-4c0-1.1-0.9-2-2-2h-4c-1.1,0-2,0.9-2,2v4
		C216.6,126.4,217.5,127.3,218.6,127.3z"/>
	<path class="st0" d="M218.6,143.2h4c1.1,0,2-0.9,2-2v-4c0-1.1-0.9-2-2-2h-4c-1.1,0-2,0.9-2,2v4
		C216.6,142.3,217.5,143.2,218.6,143.2z"/>
	<path class="st0" d="M202.9,159.1h4c1.1,0,2-0.9,2-2v-4c0-1.1-0.9-2-2-2h-4c-1.1,0-2,0.9-2,2v4
		C200.9,158.2,201.8,159.1,202.9,159.1z"/>
	<path class="st0" d="M202.9,127.3h4c1.1,0,2-0.9,2-2v-4c0-1.1-0.9-2-2-2h-4c-1.1,0-2,0.9-2,2v4
		C200.9,126.4,201.8,127.3,202.9,127.3z"/>
	<path class="st0" d="M202.9,143.2h4c1.1,0,2-0.9,2-2v-4c0-1.1-0.9-2-2-2h-4c-1.1,0-2,0.9-2,2v4
		C200.9,142.3,201.8,143.2,202.9,143.2z"/>
	<path class="st0" d="M187.1,159.1h4c1.1,0,2-0.9,2-2v-4c0-1.1-0.9-2-2-2h-4c-1.1,0-2,0.9-2,2v4C185.2,158.2,186,159.1,187.1,159.1z
		"/>
	<path class="st0" d="M187.1,143.2h4c1.1,0,2-0.9,2-2v-4c0-1.1-0.9-2-2-2h-4c-1.1,0-2,0.9-2,2v4C185.2,142.3,186,143.2,187.1,143.2z
		"/>
	<path class="st0" d="M187.1,127.3h4c1.1,0,2-0.9,2-2v-4c0-1.1-0.9-2-2-2h-4c-1.1,0-2,0.9-2,2v4C185.2,126.4,186,127.3,187.1,127.3z
		"/>
	<path class="st0" d="M247.2,103.5h-84.3V23.8c0-4.4-3.6-7.9-7.9-7.9V7.9c0-4.4-3.6-7.9-7.9-7.9h-31.8c-4.4,0-7.9,3.6-7.9,7.9v7.9
		c-4.4,0-7.9,3.6-7.9,7.9v79.7H5.1c-4.4,0-7.9,3.6-7.9,7.9v55.6c0,4.4,3.6,7.9,7.9,7.9h242.1c4.4,0,7.9-3.6,7.9-7.9v-55.6
		C255.1,107.1,251.6,103.5,247.2,103.5z M99.4,167.1H5.1v-55.6h94.3V167.1z M115.3,7.9H147v7.9h-31.8V7.9z M139.1,167.1h-15.9V107
		h15.9V167.1z M155,167.1H147V107c0-4.4-3.6-7.9-7.9-7.9h-15.9c-4.4,0-7.9,3.6-7.9,7.9v60.1h-7.9V23.8H155V167.1z M247.2,167.1
		h-84.3v-55.6h84.3V167.1z"/>
</g>
<rect x="153.2" y="83.9" class="st1" width="146.8" height="136.7"/>
<g>
	<circle class="st0" cx="202.5" cy="128.1" r="48"/>
</g>
<path class="st2" d="M202,107.9v40.5 M182.5,128.4h40"/>
</svg>
