<svg width="14" height="15" viewBox="0 0 14 15" fill="none" xmlns="http://www.w3.org/2000/svg">
<g clipPath="url(#clip0_3147_2025)">
<path d="M7 1.26501C5.37555 1.26501 3.81763 1.91033 2.66897 3.05899C1.52031 4.20765 0.875 5.76556 0.875 7.39001C0.875 9.01447 1.52031 10.5724 2.66897 11.721C3.81763 12.8697 5.37555 13.515 7 13.515C8.62445 13.515 10.1824 12.8697 11.331 11.721C12.4797 10.5724 13.125 9.01447 13.125 7.39001C13.125 5.76556 12.4797 4.20765 11.331 3.05899C10.1824 1.91033 8.62445 1.26501 7 1.26501ZM7 0.390015C8.85651 0.390015 10.637 1.12751 11.9497 2.44027C13.2625 3.75302 14 5.5335 14 7.39001C14 9.24653 13.2625 11.027 11.9497 12.3398C10.637 13.6525 8.85651 14.39 7 14.39C5.14348 14.39 3.36301 13.6525 2.05025 12.3398C0.737498 11.027 0 9.24653 0 7.39001C0 5.5335 0.737498 3.75302 2.05025 2.44027C3.36301 1.12751 5.14348 0.390015 7 0.390015Z" fill="#377DFF"/>
<path d="M4.06525 10.3248C4.10589 10.3655 4.15417 10.3978 4.20732 10.4199C4.26047 10.4419 4.31745 10.4533 4.375 10.4533C4.43255 10.4533 4.48953 10.4419 4.54268 10.4199C4.59583 10.3978 4.64411 10.3655 4.68475 10.3248L7 8.00864L9.31525 10.3248C9.35593 10.3654 9.40422 10.3977 9.45736 10.4197C9.51051 10.4417 9.56747 10.4531 9.625 10.4531C9.68253 10.4531 9.73949 10.4417 9.79264 10.4197C9.84578 10.3977 9.89407 10.3654 9.93475 10.3248C9.97543 10.2841 10.0077 10.2358 10.0297 10.1827C10.0517 10.1295 10.0631 10.0725 10.0631 10.015C10.0631 9.95749 10.0517 9.90053 10.0297 9.84738C10.0077 9.79423 9.97543 9.74594 9.93475 9.70526L7.61862 7.39001L9.93475 5.07476C9.97543 5.03409 10.0077 4.9858 10.0297 4.93265C10.0517 4.8795 10.0631 4.82254 10.0631 4.76501C10.0631 4.70749 10.0517 4.65053 10.0297 4.59738C10.0077 4.54423 9.97543 4.49594 9.93475 4.45527C9.89407 4.41459 9.84578 4.38232 9.79264 4.36031C9.73949 4.33829 9.68253 4.32696 9.625 4.32696C9.56747 4.32696 9.51051 4.33829 9.45736 4.36031C9.40422 4.38232 9.35593 4.41459 9.31525 4.45527L7 6.77139L4.68475 4.45527C4.64407 4.41459 4.59578 4.38232 4.54264 4.36031C4.48949 4.33829 4.43253 4.32696 4.375 4.32696C4.31747 4.32696 4.26051 4.33829 4.20736 4.36031C4.15422 4.38232 4.10593 4.41459 4.06525 4.45527C4.02457 4.49594 3.99231 4.54423 3.97029 4.59738C3.94828 4.65053 3.93695 4.70749 3.93695 4.76501C3.93695 4.82254 3.94828 4.8795 3.97029 4.93265C3.99231 4.9858 4.02457 5.03409 4.06525 5.07476L6.38138 7.39001L4.06525 9.70526C4.02451 9.7459 3.99218 9.79418 3.97013 9.84734C3.94807 9.90049 3.93672 9.95747 3.93672 10.015C3.93672 10.0726 3.94807 10.1295 3.97013 10.1827C3.99218 10.2358 4.02451 10.2841 4.06525 10.3248Z" fill="#377DFF"/>
</g>
<defs>
<clipPath id="clip0_3147_2025">
<rect width="14" height="14" fill="white" transform="matrix(1 0 0 -1 0 14.39)"/>
</clipPath>
</defs>
</svg>
